<?xml version="1.0" encoding="UTF-8"?>
<svg id="Layer_1" data-name="Layer 1" xmlns="http://www.w3.org/2000/svg" version="1.1" viewBox="0 0 667 667">
  <defs>
    <style>
      .cls-1 {
        fill: #383874;
      }

      .cls-1, .cls-2, .cls-3, .cls-4, .cls-5, .cls-6 {
        stroke-width: 0px;
      }

      .cls-2 {
        fill: #4597b7;
      }

      .cls-3 {
        fill: #4e8ba4;
      }

      .cls-4 {
        fill: #fdfefe;
      }

      .cls-5 {
        fill: #d18327;
      }

      .cls-6 {
        fill: #4996b4;
      }
    </style>
  </defs>
  <path class="cls-4" d="M333.5,666.9c-109.8,0-219.6,0-329.4,0-3.4,0-4.1-.7-4.1-4.1C.1,443.3.1,223.7,0,4.1,0,.7.7,0,4.1,0c219.6.1,439.2.1,658.8,0,3.4,0,4.1.6,4.1,4.1-.1,219.6-.1,439.2,0,658.8,0,3.4-.7,4.1-4.1,4.1-109.8-.1-219.6,0-329.4,0h0ZM419,43.2h0c.4.8,1.2,1,2.1.8,3.8,0,6.4,2.8,9.6,4.2,10.8,5,21.5,10.3,31.5,16.8,2.9,1.9,3.4-.6,4.4-2,.7-.8,2.3-1.8.2-3.1-9.3-5.4-18.1-11.5-28.4-15.1-3.2-2.1-6.7-3.6-10.4-4.8-5.2-2-10.4-4.4-15.7-6.1-7.1-2.2-14.7-3-21.5-5.6-7.9-3-16-3.5-23.9-5.4-1.6-.4-3.1,0-2.8,2.2.2,1.8-1.1,4.4,2.1,4.7,10.7,1.1,21,4.2,31.6,6.2,3.9,1.8,8,2.9,12.2,3.8.2.2.5.3.8.2,1.8,1.3,3.9,1.8,6.1,2.2h0c.5.8,1.3.8,2.2.8h0ZM154.1,394.8h.1c0-.8-.4-1.5-1.2-1.9-.3-.3-.5-.7-.8-1-.4-.5-.8-1-1.1-1.5v-.3s-.2-.2-.2-.2c-1-2.2-2-4.5-3.8-6.2-.9-3.2-3.1-5.5-5.1-8.3-.5,3.3-2.4,6.2-1.9,9.6-1.5,4.1-3.7,8.3.8,12.1h0c.1.5.2,1.1,1,1.1h-.1c.2,1.3.9,2.3,2.1,2.9h0c0,.3,0,.6.3.8,2.3,3.8,4.7,7.7,8.5,11.3,1.2-5.5,2.2-10.4,3.3-15.3.3-.9,0-1.6-.8-2h0c-.3-.3-.7-.7-1-1.1h0ZM498.9,437.9h0c-.7.6-1.4,1.3-2.1,2-2.3,2.3-4.7,4.6-7,6.9-.5.4-1,.9-1.5,1.3.3.3.6.8.9.8,5.6-.3,11.2.9,16.7-1,6.5-5.2,12-11.2,16.6-18-5,0-9.5,0-13.9,0-2.3,0-3.8.9-4.8,2.8-.4.4-.8.8-1.2,1.2-.3.3-.6.6-.8.8-.4.4-.8.8-1.2,1.2-.3.3-.5.6-.8.9-.3.4-.7.8-1.1,1.2h0ZM165,428c.3.4.7.8,1,1.2.3.3.6.5.8.8.4.4.8.7,1.2,1.1,2.6,3.4,5.6,6.3,9,8.9,1.7,1.8,2.1.8,2.1-1,0-4.3,0-8.6.1-12.8,0-1.3-.4-2.2-1.8-2.5h0c0-.6-.3-1-1-1h0c-.8-2.2-2.5-3.6-4.3-4.9-1.8-2.3-3.6-4.6-5.4-6.9-.8-1-1.6-2.4-3.1-1.7-1.7.7-1.8,2.2-1.4,3.8,0,.3-.1.7-.2,1-.2.4-.3.7-.5,1.1,0,.3-.2.6-.2.9,0,.7,0,1.3,0,2,.2,2.8-1.5,5.9,1.8,8h0s2,2,2,2h0ZM469.8,437.9h0c-1,.2-1.9.7-2.2,1.8-3,1.6-5.7,3.6-7.9,6.1h0c-1.3.2-2.2,1.1-3,2.1-3.4,5.2-2.1,11.1-3.5,17.4,6.2-3.8,11.3-6.9,15.7-11.2,6.6-2.8,5.7-8.7,5.9-14.1.1-.7.2-1.3.3-1.9.9-1.7.9-3.5.3-6-1.6,1.8-2.7,3.1-3.9,4.4h0c-.9.1-1.5.6-1.8,1.4h0ZM527.9,372c0,.8,0,1.6.9,2.1h0c.3,2.3,1.3,4.4,2.6,6.4,1.7-.7,1.7-2.3,2.3-3.6,2.3-4.9,4.7-9.8,7-14.7.6-1.3,1.6-3,1.2-4.1-1.9-5.5-4.2-10.8-6.8-17.3-2.7,7.2-4.9,13.1-7.1,19.1-.7,2.3-3.7,4.1-1.9,7.1,0,.3,0,.7.1,1,.6,1.3,1.2,2.7,1.8,4h0s0,0,0,0ZM500.3,93.8c0-.9-.6-1.4-1.3-1.8h0c-1.3-1.1-2.2-3.9-4.2-2.9-1.4.7-.6,3.2-.2,4.9,0,.7.1,1.4.2,2-.5,2-.7,4.1,0,6.1,0,.6,0,1.2,0,1.8-.5,1.1-.2,1.9,1,2.3,4.9,5.3,9.8,10.6,14.7,15.9.5.6.9,1.7,1.5,1.8,1.3.3.9-1,.9-1.6,0-4.9,0-9.9,0-14.8,0-1.6-.6-2.8-2-3.7-3.8-1.4-4.2-6.3-7.9-7.9-.7-1-1.3-2.1-2.7-2.4h0c0,0,0,0,0,0ZM120,204c-.4.3-.8.6-1.2,1h0c-3.8.8-6.4,2.7-5.9,7.1-2.5,6-3.5,12.4-4.9,19.5,5.1-2.9,9.5-5.4,13.9-7.9,2.5-2.7,2.5-6.2,3.1-9.5h0c1.3-1.8,1.8-3.9,1.9-6.1,1.2-.7,1-1.9,1-2.9,1.1-2,2.1-4,2-7-2.3,1.5-4.2,2.6-6.1,3.8h0c-1.3.6-2.6,1.4-4,2.1h0s0,0,0,0ZM426.8,618.1l1,.9c1.4,5,2.9,10,4.4,15,.2.4.5.9.7,1.3,0,.2,0,.5,0,.7,0,5.6,2.7,7.3,8.4,7.2,25.4-.3,50.8-.2,76.2-.2s14-4.7,13.4-14.2c0-.8,0-1.7-.4-2.4-.2-.4-1.1-.4-1.7-.6-.6,0-1.2,0-1.9,0-10.7,0-21.5,0-32.2,0-2.3,0-4.6,0-6.9,0-.3,0-.7,0-1.1,0-3.3-1.3-.9-2.9,0-4.1,5.2-7.7,10.3-15.5,15.9-22.9,7.2-9.6,12.9-20.2,20.4-29.6,4.1-5.1,8-10.4,7.1-17.9-.5-3.8-1.2-5.1-5.1-5.1-17.3.2-34.6,0-51.9,0s-13.2,0-13.3,13.2c0,3.8,1,5.3,5,5.2,10-.2,20-.1,29.9,0,2.2,0,4.5-.5,7,.5-1,1.5-1.6,2.7-2.3,3.7-10.8,15.5-21.7,31-32.5,46.6-3.3,4.8-6.8,9.5-9.9,14.3-1.2,1.9-2,1.9-3.1.2-.3-3.2-1.3-6.3-2.8-9.1h0c0-1.1,0-2.3-1-3.1,0-.3,0-.7,0-1-7-22.5-14-45.1-20.9-67.7-.7-2.4-2.3-2.6-4.1-2.7-4.8,0-9.7,0-14.5,0-10.5,0-10.7,0-13.9,10.1-5.1,16.4-10.5,32.7-14.7,49.4-2,4.5-3.3,9.2-4.2,14h0c-2.4,5.1-3.9,10.5-5,16.1h0c-.6,2-3.4,4.1,0,6.2.4,1,1.2.9,2.1.8,5,0,10,.1,14.9.2,1.5,0,3.2.3,3-2.1,1.8-6.1,3.7-12.2,5.3-18.3.8-2.9,2.1-4.3,5.4-4.1,3.7.2,7.6.6,11.3-.3h7.9c1.3,0,2.6,0,3.9,0h0c0,0,0-.1,0-.1ZM492.4,433.4h.2c.9-.3,1.4-1,1.7-1.8.6-.5,1.1-1.1,1.7-1.6,10.4-6.3,3.8-15.8,4.2-24.1-1.8,2.3-3.6,4.7-5.3,7h0c-3,2.7-5.8,5.6-8,9h0c-1.9,1.3-3.9,2.6-3.7,5.4.4,4.6.8,9.3,1.2,14.7,2.6-2.7,4.6-4.8,6.7-6.9h0c.7-.4,1.3-.7,1.4-1.6h0ZM136.3,184.1h0c1.2-1,1.8-2.4,2.1-4,2.6-4.8,5.2-9.6,8.4-15.3-5.4,2-9.6,3.4-13.7,4.9-1.7.6-3.8.6-4.8,2.3-3.6,7-7,14-9.6,22.5,3.1-1.3,5.3-2.2,7.5-3.2.3,0,.6,0,.9-.4.3,0,.7,0,1-.1.4-.2.8-.5,1.3-.7.6,0,1.1-.1,1.7-.2,1.8-.7,4.2-.8,4.3-3.6h0c.9-.5.9-1.4,1-2.2h0ZM525.7,182.3h0c.2,1.9.9,3.7,2.2,5.1,0,.3,0,.5.2.6,2.3,1.9,5.2,2.2,7.8,3.1.8,1,1.9.9,3,.9,1.3,1.4,3.1,1.1,5.6,2.4-2.9-6.8-4.7-12.9-8.4-18.1v-.3c0-.9-.2-1.8-1.1-2.2h0c-.1-1.3-.4-2.5-2-3.1-5.5-1.9-10.9-3.9-17.2-6.2,3.4,5.8,6.2,10.7,8.9,15.6h0c0,.7,0,1.6,1,2h0ZM405.2,488.2c2.2-.5,2.6-2.3,3-4.2h0c1.4-1,1.9-2.6,2.5-4.1.1-.3.2-.7.3-1,.2-.2.4-.5.3-.8h0c1.9-1.7,2.2-4.2,3.7-6.4-2.2-.4-3.5.9-5,1.4-2.2.8-4.3,1.9-6.5,2.3-8.9,1.8-15.8,5.8-18.5,15.2-.2.8-1.2,1.5-.8,2.5.6,1.5,2,1,3,.7,4.3-1.2,8.5-2.6,12.8-3.9,1.8-.3,3.7-.5,5.1-1.9h0c0,.1,0,.1,0,.1ZM575.2,260.4c.7-.2,1.2-.5.8-1.3,1.6-1.8,2.3-3.9,1.9-6.3-.7-5-1.2-10.1-1.9-15.2-.2-1.4.7-3.5-1-4-1.8-.5-2.7,1.5-3.2,3l-.2.3c-1,.2-1.4,1-1.6,1.9-.3.4-.7.8-1.1,1.2h0c-1.8,2-5.1,3.9-4.6,6.5,1,5.8,0,11.8,1.7,17.5h0v7.3c2.2-2.1,4.6-3.5,5.2-6.2h0c.4-.3.8-.6,1.1-1h0c1.7-.7,1.8-2.7,3.1-3.8h0c0,0,0,0,0,0ZM210.2,86.3c1.3-.3,2.4-.8,2.8-2.2,4.4-4.7,8.7-9.5,14.1-13.1.6,0,.9-.3.8-.9v-.2c2.5-1.3,4.1-3.2,5.9-5.8-3.5.4-6.2.7-8.9,2-5.8,1-11.7,1.9-17.4,3.2-2.6.6-5.8,0-7.6,2.8-3.6,5.3-7.2,10.6-10.8,15.9-1.9,2.6-3.8,5.2-6.4,8.7,4.8-1.5,8.4-2.5,11.6-4.5h.5l.4-.2c1.7-.6,3.4-1.2,5.1-1.9.3-.3.6-.5.9-.8,3.2-.4,6.4-1.1,9.1-3.1h0ZM223.8,473.2c.4.3.8.7,1.2,1,5.8,2.9,11.7,5.9,18.1,9,0-4.3-2-7.3-2.6-10.7-.7-4.2-3-6.5-6.8-8.3-5.5-2.7-11.7-4.2-16.5-8.8.3,2.1-.8,4,.8,5.6,0,.3,0,.6.3.9,0,.8-.2,1.6.5,2.2,1.3,3.3.5,7.7,5,9.3l.2-.2h0ZM288,44.1c-3.2.1-6.2.6-9.1,2-7.8.9-15,3.8-22.5,6-3,.9-1.3,2.9-1,4.4.3,1.6.9,2.8,3.3,1.9,11.2-4,22.8-6.4,34.4-9,1.7-.6,3.8.4,5.2-1.2.8-.5.7-1.3.5-2.1.1-1.9.9-4.6-2.3-3.9-2.8.6-5.9.2-8.5,1.8h0ZM173.9,110.8c-.6.4-1.3.8-1.9,1.2h0c-5,4.4-9.7,9.1-13.2,14.9h0c-.3.1-.5.4-.8.7.4,0,.8.1,1.2.2,3.5,0,7,.1,10.5.1s4.5.4,6.5-1.6c5.3-5.5,10.7-10.8,16.1-16.1.1-.2.3-.4.3-.7,0,0-.2-.3-.3-.3-4.5,0-9.1-.1-13.7,0-1.7,0-3.7-.4-4.7,1.7h0s0,0,0,0ZM202.3,469.7h0c-1.8-2.4-4.7-3.3-7.1-4.9-2.1-2-6-1.3-6.9-4.9-.6-1.3-1.7-2.4-2.9-2.3-5.3.5-10.6,1.2-16.1,1.8.8,2.3,2.3,3,3.8,3.7,1.7,2.6,5.2,3,6.8,5.2,5.4,7.3,12.4,7.6,20.2,5.4,2.3.4,4.4-.2,7.2-1.3-2.2-1.2-3.6-2-5-2.8h0ZM211.9,481.9h0c-3,.4-5.9,1.1-8.7,2.6,1.3,1.9,3.1,2.5,4.8,3.3,2.4,1.4,4.8,2.9,7.3,4.1,3.2,1.7,6.7,4.8,9.7,4.4,5.8-.7,11.6-2.7,17.5-5.5-7.2-3.4-13.9-6.2-20.2-9.7-3-1.6-5.5-1.7-8.3-.1-.8-.1-1.6,0-2.1.9h0ZM490.4,462.6l.2-.2c1.2-.5,2.4-1,2.9-2.9-4.6-.3-8.9-1.8-13.5-1.5-1.1-.2-2-1.2-3.2-.3-5.9,4.2-11.9,8.3-17.7,12.7-1.8,1.3-1.4,3,1,3.4,1.3.2,2.6,0,4,0,5.1,1.3,10.2,3.3,14.4-1.8,4.5-2.3,6.9-7.3,11.8-9.1.2,0,.3-.2.2-.4h0ZM165.4,107.4h0c1.5-.5,2.5-1.5,2.6-3.2,0-5.1,0-10.3,0-15.8-2.2,1.1-3.3,2.2-4.2,3.6-1.6,1.6-3.2,3.3-4.9,4.9-6.6,4.7-10.8,10.4-8.8,19,0,2,0,4,0,6,0,.6-.1,1.5.2,1.7.7.3,1-.3,1.1-.9l.2-.3c4.8-3.6,8.2-8.4,11.8-13h0c1.2-.2,1.8-.9,1.9-2ZM522.6,124.9h.1c-2.3,6.4-3.1,12.5,3.1,17.3.3,2.3,1.9,3.9,3.2,5.5,1.7,2.2,2.1,6.7,5.7,6,3.4-.7,1.8-4.8,2.4-7.4.7-2.8,2.3-5.6.7-8.5-3.2-5.6-7.4-10.5-11.7-15.2-1.3-1.5-2.4-1.7-3.1.5-.1.6-.3,1.2-.4,1.8h0ZM102.2,198.9c-.8-2.6-2-4.8-4.2-7.6-.8,2.7-1.3,4.7-1.9,6.7-1.2,2.5-2.1,5-2.2,7.8-1.1,3.7-3.9,7.1-2,11.3,1,3.3,4.3,5.5,4.9,9,.8,2.1,1.6,4.1,3.9,5.9.5-3,.8-5.5,1.2-8,.6-.5.8-1.2.7-2l.5-3h0c2.6-6.8,5.9-13.7-.9-20.2h0s0,0,0,0ZM374.1,597.1c.7-.2,1.6-.2,1.8-1.2,1.5-1.7,3-3.3,3.2-5.8,4.2-8.9,4.3-17.8,0-26.6-2.9-8-9.3-12.1-16.8-14.7-8.5-2.9-17.4-3.2-26.3-2.8-6.3.5-12.5,1.1-18.8,1.4-3.8.2-4.3,2.1-4.3,5.5.1,27.5,0,54.9,0,82.4s3,8.8,9.1,8.5c2.3,0,4.7,0,7,0,3.7.8,5.3-.4,5.1-4.6-.4-7.7-.2-15.5-.3-23.3.5-7.1.5-6.8,7.8-6.7,5.2,0,10.5,0,15.5-2,6.7-1.8,13.3-3.7,17-10.3h-.1c0,0,0,0,0,0ZM125.7,346.7h.1c-5.6,7.9-5.6,15.7.2,23.4,1.8,1.6,1.7,4.1,2.8,6,.4,1.8,1.1,3.4,2.9,4.7,1.5-3.9,3-7.7,4.5-11.4.7-1.7,1.5-3.4.8-5.2-2.2-5.2-4.5-10.5-6.8-15.7.1-.2,0-.3-.1-.5-.3-2.3-1-4.3-2.7-6.6-.6,2-1.2,3.6-1.7,5.2h0ZM479,96c0,0,.2.1.3.1h-.4c-.4-2.7-2.1-4.6-3.9-6.3-3.1-4.7-6.2-9.4-9.4-14-1.5-2.2-3.2-3.9-5.9-5-9.7-3.9-20-4.2-30.1-6.5,7.1,7.4,14.3,14.4,21.8,21.2,1.7,1.5,3.9,2.5,6.3,2.6,6.9,3.1,14,5.9,21.3,7.9h0ZM427.9,465.3c-.3,0-.4,0-.5.3-1.7.4-3.1,1-3.6,2.9-1.4,4.7-2.9,9.3-4.7,14.7,1.8-.8,2.8-1.2,3.8-1.6,1.7-.8,3.4-1.7,5.1-2.5.6,0,1.1-.1,1.2-.8h.2c12.8-2.5,15.5-12.4,17.4-23.3-2.5.6-4.1,2-5.8,3.3l-1.2.8c-.6.3-1.2.7-1.9,1h0c-3.4,1.8-6.7,3.5-10.1,5.3h0ZM93.8,268.2h0c.4,1.7,1.3,2.8,2.9,3.4.3-5.5.6-10.5.8-15.6,2.7-10.3-2.9-17-10.4-23.8-.1,2.5-.2,4.5-.3,6.4-2.9,11.1-3.8,21.7,6.9,29.6h0ZM543.9,384h0c5.6-1.8,11.3-2.8,13.6-9.9,1.8-5.7,4.5-11.1,6.4-17.1-9.7,2.8-18.6,5.5-20.2,16.9-.4.7-.8,1.4-1.1,2.1-.3.6-.5,1.2-.8,1.8-1.7,2.9-3.3,5.8-5.4,9.5,3.3-1,5.7-1.5,7.5-3.1h0ZM571.7,331c.1-.6.2-1.2.4-1.9,1.6-4.1,2.2-8.4,2.8-13.6-2.6,1.8-4.4,3.1-6.2,4.4-3.3,2-7.8,2.5-8.7,7.3-2.3,7.5-4.5,15-6.9,23,1.9-.6,3.2-.9,3.9-2.1,2.4-.7,4.1-2.4,6-3.8,6.8-1.9,8.1-7.4,8.7-13.3h0ZM540.9,223.7c2.4,1.4,4.8,2.8,7.2,4.4,1.3.9,2.9,1.6,4.1.8,1.2-.8,1.3-2.5,1-4-1-4-2.2-7.9-2.8-12-.8-4.8-3.4-7.7-8-8.9-3-2.4-6.2-4.3-10.3-5.6,1.4,4,2.7,7.4,3.8,10.8,1.1,3.6,2.1,7.3,3,11,.4,1.5.5,2.9,2.1,3.6h0ZM557.8,260c0-2.2.4-4.4,0-6.5-.9-4.1.4-9.3-4.9-11.5-2-1.7-3.9-3.4-5.9-5.1-.9-.8-1.9-1.2-3.2-.8-1.6.6-1,1.9-.9,3,.5,4.4.8,8.8,1.8,13.1.6,2.6-1.6,6.2,2.2,7.9,1.3,2.6,4,3.5,6,5.2,1.7,1.4,3.3,2.9,5.4,4.7.5-3.9.2-6.9-.6-9.9h0ZM140,151.8c-.3.4-.6.8-.9,1.3-.2.1-.3.3-.2.5-1.3,1.5-2.5,3-2.9,5.7,5.5-1.2,10.9-1.2,15.9-3.3.2,0,.3-.2.3-.5.3-.5.7-1,1-1.5,4.7-6.2,9.5-12.3,14.5-19-6,1-11.3,2-16.7,2.8-1.4.2-2.4.6-3.3,1.9-2.7,3.9-5.8,7.6-7.8,12h0ZM540.9,336.1c1.8,3,3.1,6.4,5.8,8.9,8.1-18.2,7-29.6-3.6-38.5-.2,3.2-1.7,6.1-1.3,9.3-1.3,3.3-2.4,6.7-1.9,10.4l.3.3.3-.3c-4.7,3.5-2.1,6.7.3,9.9h0ZM522.7,383c-1-2.5-.4-5.4-2.4-7.9-4.3,6.2-6.1,13.7-11.6,18.9-1.2,1.1-2.1,2.8-1.7,4.5,1.2,4.6,1.5,9.5,3.7,14.4,4.1-5,7.9-9.5,10.6-14.8,5.5-4.6,2.1-10,1.4-15.1h0ZM157,448c5.3,1.8,10.7.9,16,.9,3.2,0,.7-1.3,0-2-5.1-5.2-10.2-10.4-15.3-15.6-.8-.8-1.8-1.3-3.1-1.3-4.7,0-9.5,0-15.2,0,6.5,5.8,10.7,13.1,17.5,18h0ZM85.2,292c.1,3.3-1.3,7.1,2.8,9.2,2.3,2.2,4.5,4.4,6.9,6.5,1,.9,2,1.7,3.6.9,1.6-.8.6-2.1.6-3.1-.2-3.6-1.2-7.3-.8-10.9,1-10.7-7.1-14.5-14.2-20.7.4,6.9-.4,12.6,1.2,18.1h0ZM94.2,320c-1.7-1.6-3.6-2.8-6-3.5-.3,3.3.7,6.2,1.7,9.1.7,12.9,6.9,20.5,19.5,24.2-1.7-5.8-3.9-11.5-4.8-17.5-1-6.6-4.7-10.1-10.4-12.2h0ZM120.2,166.7c-3.2-3.6-1.2-9.2-4.9-13-4.1,7-7.3,14-10.5,21.1-.5,1.1-.3,1.8,0,2.8,1.9,5.1,3.8,10.3,6.1,16.9,2.5-7.4,5.7-13,7.2-19.3,2.1-2.5,4.5-4.9,2.1-8.5h0ZM128,397.2c-1.6-.3-3.2-.6-4.8-.9-1-.2-2-.3-3-.5-1-1.2-2.6-1.3-3.4-.5-.6.6.2,2,1.3,2.7,6.7,15.7,16,22.5,29.3,21.2-4.2-5.9-8.4-11.5-12.2-17.5-1.8-2.8-3.9-4.3-7.1-4.5h0ZM375.1,64c-2.3-1.5-5.1-1.2-7.6-1.8-1.4-.3-3.6-.9-3.5,1.9,0,2.1-.6,4.8,2.7,4.8,2.5,0,4.8,1.6,7.3.8.7.4,1.5.9,2.2,1.1,15.6,3.1,30.5,8.5,44.8,15.4,6.7,3.2,13.1,7.1,19.7,10.7,2.4,1.3,4.2.4,5.5-1.9,1.6-2.7-1-3.1-2.3-3.9-12.2-7.7-25.1-14.1-38.8-19-9.8-3.5-19.6-7.1-30-8.2ZM331.4,460.2c5.5-14.5,10.7-28.2,16.2-42.6,8.5,12.9,16.6,25,25.2,38,2.2-15.4,4.2-29.8,6.3-45,11.1,10.5,21.7,20.5,33.1,31.2-1.4-15.7-2.7-30.1-4.1-45.4,13.1,7.8,25.7,15.3,39.2,23.3-4.3-13.5-8.4-26-12.4-38.5-.4-1.2-1.6-2.7-.8-3.7,1.2-1.4,2.7,0,4.1.4,12.5,4,25,8,38.5,12.3-8-13.5-15.4-26.1-23.2-39.2,15.4,1.4,29.8,2.7,45.5,4.1-10.9-11.5-20.9-22-31.4-33.1,15.1-2.1,29.5-4.1,45-6.3-13.2-8.7-25.3-16.8-38-25.2,14.2-5.4,27.8-10.6,42.6-16.1-14.6-5.5-28.1-10.7-42.6-16.2,13-8.6,25-16.6,37.9-25.1-15.6-2.2-30.1-4.2-45.2-6.4,10.5-11,20.5-21.5,31.3-32.8-15.7,1.3-30,2.5-45.2,3.7,7.8-13.1,15.1-25.5,23.1-39.1-15,4.8-28.7,9.2-43.3,13.9,4.7-14.7,9.2-28.5,13.9-43.4-13.5,8-26.2,15.5-39.2,23.2,1.3-15.3,2.6-29.9,4-45.5-11.4,10.9-22,21-33,31.5-2.1-15.1-4.1-29.5-6.3-45.1-8.8,13.2-16.8,25.3-25.2,37.9-5.4-14.3-10.6-27.9-16.2-42.5-5.6,14.6-10.7,28.2-16.2,42.6-8.5-12.9-16.5-24.9-25.2-38-2.2,15.7-4.2,30.1-6.3,45.1-11.1-10.6-21.6-20.6-33-31.5,1.4,15.9,2.7,30.4,4,45.5-12.9-7.6-25.5-15.1-39.2-23.2,4.8,15,9.2,28.8,13.9,43.3-14.7-4.7-28.4-9.1-43.3-14,8.1,13.6,15.4,26.1,23.2,39.2-15.1-1.3-29.5-2.5-45.2-3.8,10.9,11.5,20.8,22,31.2,32.9-15.2,2.1-29.5,4.1-44.9,6.3,13.1,8.7,25.1,16.7,37.8,25.2-14.5,5.5-28.1,10.7-42.5,16.1,14.7,5.5,28.4,10.7,42.6,16.1-12.7,8.5-24.8,16.5-37.9,25.2,15.6,2.2,30,4.2,45,6.3-10.6,11.2-20.6,21.6-31.4,33,15.8-1.4,30.3-2.7,45.5-4-7.8,13.2-15.3,25.9-23.3,39.3,14.7-4.7,28.6-9.2,43.4-14-4.8,14.8-9.2,28.5-13.9,43.3,13.5-8,26.1-15.5,39.2-23.2-1.3,15.3-2.6,29.7-3.9,45.3,11.5-10.9,22-20.8,33-31.2,2.2,15.2,4.2,29.5,6.3,45,8.7-13.1,16.8-25.2,25.2-37.9,5.5,14.6,10.7,28.2,16.1,42.6h0ZM243.3,572.8c9.8,21.8,22.6,42,33.5,63.1,2.8,5.5,5.9,8.1,12.1,7.2,3.4-.5,7-.3,10.5,0,3.6.3,4.8-.6,4.7-4.5-.2-29.3-.2-58.6,0-87.9,0-3.3-.6-4.9-4.3-4.5-3.5.3-7,.4-10.5,0-4.6-.6-5.5,1.3-5.4,5.6.3,20.2-.5,40.4,1.4,60.6-1.4,0-1.4-.8-1.6-1.3-8.9-21.3-21-41-32.2-61.1-1.5-2.7-3.1-3.9-6.2-3.8-5.7.2-11.3.3-17,0-3.6-.2-4.4,1.1-4.3,4.5.1,25.8,0,51.6,0,77.4,0,4.8-1.7,11.2.8,14,2.8,3.1,9.4.5,14.3,1.1,4.5.6,5.1-1.4,5-5.3-.2-21.6.3-43.3-.8-65h0ZM193.4,578.8c0,7.2,0,14.3,0,21.5,0,6.3-.1,12.7-3.4,18.4-5.3,9.2-18,10.9-25.5,3.4-4.9-4.9-6.2-11.2-6.2-17.8-.2-18.2-.1-36.3,0-54.5,0-2.8-.4-4.3-3.8-4.1-5.1.3-10.3.2-15.5,0-2.1,0-2.9.6-2.9,2.8.6,21.3-1.3,42.6,1.2,63.8,1.2,10.5,5.6,19.9,14.9,25.9,7.2,4.6,15.3,5.7,23.8,5.7,24.1,0,37.5-13.9,38.9-36.2,1.2-19.6.3-39.3.5-58.9,0-2.4-.8-3.2-3.1-3.1-5,.1-10,.2-15,0-3.2-.2-3.9,1-3.8,4,.2,9.7,0,19.3,0,29h0ZM299,26.3c.6-3.4-1.5-3.4-3.9-3.1-14.2,1.8-27.8,5.9-41.5,9.9-18,5.4-34.9,13.5-51.2,22.8-2.2,1.3-3.9,3-5.6,4.8-.8.8-.9,1.8-.4,2.7.6,1,1.4,1.7,2.8,1.6,1.6-.1,2.8-1.1,4-1.8,28.6-17.2,59.3-28.4,92.3-33.2,2.5-.4,3.7-1.2,3.3-3.8h0ZM296.2,61.9c-5,1.1-10,2-15,3.2-22.1,5.2-42.8,13.9-62,25.9-1.3.8-3.9,1.1-2.6,3.9,1.2,2.6,3.4,2.4,5.5,2,1.1-.2,2-1.1,3-1.7,14.7-8.8,30.2-15.8,46.7-20.6,7.9-2.3,15.9-4.4,24.1-5.6,2.8-.4,3.2-2.2,3.2-4.6,0-2.2-1.1-2.5-2.9-2.5h0ZM470.7,109.1c5.5,5.9,10.9,11.6,16.2,17.3.9,1,1.9,1.6,3.4,1.6,4.7,0,9.5,0,15.1,0-5.3-7-10.7-12.7-16.5-18.1-.5-.5-1.5-.8-2.3-.8-5.4,0-10.8,0-16,0h0ZM139.2,118c-5.6,7.3-10.5,13.5-14.6,20.3-.3.5-.6,1.3-.5,1.9,1,5.5,2.1,11.1,3.4,17.9,4.7-8.2,9.2-14.9,13.8-21.5.4-.6.8-1.6.7-2.3-.8-5-1.7-10-2.8-16.2h0ZM422.1,503.6c-2.9-2.7-6.2-3.8-9.3-5.3-2.1-1-4-3.2-6.8-2.4-7.8,2.2-15.6,4.5-24.5,7.1,5.7,2.9,10.5,5.3,15.3,7.7,1.2.6,2.3.9,3.7.4,7.2-2.1,14.3-4.6,21.5-7.6h0ZM579,275.4c-.4-.2-.9-.4-1.3-.6-5.9,5.5-14.7,9.2-12.8,20.1.2,1.2-.6,2.6-.6,3.9,0,4.2-1.9,8.2-1.1,13,4.5-4,8.6-7.6,12.6-11.2,1.2-1,1.9-2.3,2-3.9.4-7.1.8-14.2,1.2-21.3h0ZM460.2,484.6c-3.1-1.1-5.3-2.1-7.6-2.6-3.2-.8-6.4-3.4-9.4-2.1-7.8,3.3-15.2,7.3-23.4,11.3,5.6,1.8,10.4,3.3,15.2,4.8,1.2.3,2.2,1.2,3.7.4,7.1-3.4,14.1-7,21.4-11.7h0ZM527.3,159.3c-3.6-7.8-7.5-14.8-13.1-19.8-4.6-4.1-12.2-2.6-19-4.5,5.2,7.2,10,13.8,14.8,20.4.5.6,1.3,1.2,2,1.4,4.8.9,9.7,1.6,15.3,2.5h0ZM547.3,152.4c-1.5,4.2-2.5,7.1-3.5,10.1-.9,2.6-2.9,5.3-1.8,8,3.1,7.5,6.5,14.9,10.2,23.3,2.1-5.8,3.9-10.8,5.6-15.7.6-1.8.4-3.5-.4-5.3-3.2-6.3-6.3-12.7-10-20.5h0ZM119.2,305.4c-3.5,5.9-6.6,10.9-9.5,16-.3.5-.3,1.3-.1,1.9,1.5,5.9,2.9,11.8,4.6,17.7.4,1.4,1.3,3.3,3.5,1.7,4.1-3.1,6.9-11.9,5.8-17-1.5-6.2-2.6-12.6-4.2-20.3h0ZM519.4,419.3c4.6-1.5,10.6-.4,14.3-4,4.7-4.6,7.8-10.6,10.9-16.4.7-1.3,1-2.5-.8-3.2-1.8-.7-13.7,2.4-14.9,4.1-3.9,5.5-7.8,11.1-11.6,16.7-1.4,2.1-.5,3,2,2.9h0ZM564.3,191.5c-2.5,4.4-4.6,8.2-6.8,12.1-.7,1.3-2,2.5-1.6,4,1.8,7.1,3.8,14.1,5.7,21.4,6-3.1,9.8-8.8,9.5-13.8-.4-7.8-3.4-15.6-6.9-23.7h0ZM239.9,503.5c6.2,2.3,11.7,4.1,17,6.3,7.1,3,12.8-.4,18.4-3.9,1.2-.7,3.2-2.8.2-4-5.7-2.2-11.6-4-17.5-5.8-1.4-.5-3-.7-4.4,0-4.4,2.3-8.7,4.6-13.8,7.3h0ZM117.2,270.9c-6,3.1-10.9,7.9-12.1,12.6-1.8,7.7.3,16.1,1.8,24.7,3.2-3.5,5.9-6.4,8.5-9.3,1.6-1.7,2.9-3.5,2.7-6.1-.7-7-1.3-14.1-.9-21.9h0ZM546.1,269.5c-.4,6,.2,10.9-.9,15.6-2.6,10.4,3.7,16.5,10.7,22.8,1.2-6,2.1-11.6,2-17.2,0-2.8,1.7-6-.5-8.6-3.4-4-7-7.9-11.3-12.6h0ZM280,494.9c-3.8-9.6-10.2-15.9-19.3-18.9-2-.7-4.2-1.2-6.1-2.2-1.8-.9-3.9-1.6-5.1-.2-1.1,1.3.8,2.9,1.4,4.4,1.3,2.7,2.7,5.3,4.1,8,.6,1.2,1.3,2.4,2.7,2.8,7.2,2,14.1,5.1,22.2,6.2h0ZM98.3,356.4c1.9,4.9,3.5,8.3,4.5,12,2.5,8.3,7.2,14.2,16.1,16.1,1.3.3,2.7,1.1,3.7.3,1.2-1,.6-2.4,0-3.7-2.5-5.6-5-11.1-7.4-16.7-.4-1-1-1.7-2-2.1-4.6-1.8-9.1-3.6-15-5.8h0ZM104.3,264.8c1.1.7-1.9,3.3,1.2,3.9,1,.2,12.3-9.8,12.4-11,.3-6.3,1.3-12.5,2.1-18.6.3-2.1-1.2-4.2-3.1-2.8-4.8,3.6-11.2,6.1-11.6,13.6-.3,4.8-.6,9.6-.9,14.9h0ZM209,459.4c-2.1-3.5.6-8.5-2.8-11.6-4.8-4.3-10.1-8-15.3-11.9-1.4-1-2.7-1.3-3.5.7-1.2,3.4,2,14,4.7,16.5,3.9,3.6,8.7,5.8,13.1,8.6,1,.6,1.9,1.9,2.9.9.7-.6.6-2,.9-3.2h0ZM365.7,42.1c-.2,0-1.9,0-1.7,2.2.2,1.8-1.2,4.4,2.4,4.9,12.6,1.9,25,4.7,37,9.1,2.7,1,3.4.1,4.2-2.1.8-2.3.5-3.5-2.1-4.4-12.5-4.3-25.4-7.2-39.8-9.7Z"/>
  <path class="cls-1" d="M331.4,460.2c-5.5-14.4-10.6-28.1-16.1-42.6-8.4,12.7-16.4,24.8-25.2,37.9-2.2-15.5-4.2-29.8-6.3-45-11,10.4-21.5,20.3-33,31.2,1.3-15.6,2.6-30,3.9-45.3-13.1,7.8-25.6,15.2-39.2,23.2,4.8-14.8,9.2-28.5,13.9-43.3-14.8,4.8-28.7,9.2-43.4,14,7.9-13.4,15.5-26.1,23.3-39.3-15.2,1.3-29.7,2.6-45.5,4,10.8-11.4,20.8-21.9,31.4-33-15.1-2.1-29.4-4.1-45-6.3,13-8.7,25.1-16.7,37.9-25.2-14.2-5.4-27.9-10.5-42.6-16.1,14.4-5.5,28-10.6,42.5-16.1-12.7-8.4-24.7-16.5-37.8-25.2,15.5-2.2,29.8-4.2,44.9-6.3-10.3-10.9-20.2-21.4-31.2-32.9,15.7,1.3,30.1,2.6,45.2,3.8-7.8-13.1-15.1-25.6-23.2-39.2,14.9,4.8,28.6,9.2,43.3,14-4.7-14.5-9.1-28.3-13.9-43.3,13.7,8.1,26.2,15.5,39.2,23.2-1.3-15.1-2.6-29.6-4-45.5,11.4,10.9,21.9,20.9,33,31.5,2.1-14.9,4.1-29.4,6.3-45.1,8.7,13.1,16.6,25.1,25.2,38,5.5-14.4,10.6-27.9,16.2-42.6,5.5,14.6,10.7,28.2,16.2,42.5,8.4-12.6,16.4-24.7,25.2-37.9,2.2,15.6,4.2,30,6.3,45.1,11-10.5,21.6-20.6,33-31.5-1.4,15.6-2.6,30.1-4,45.5,13.1-7.8,25.7-15.2,39.2-23.2-4.8,14.9-9.2,28.7-13.9,43.4,14.6-4.7,28.2-9.1,43.3-13.9-8,13.6-15.4,26-23.1,39.1,15.2-1.2,29.4-2.4,45.2-3.7-10.8,11.3-20.8,21.8-31.3,32.8,15.1,2.1,29.6,4.2,45.2,6.4-12.9,8.6-25,16.5-37.9,25.1,14.4,5.5,28,10.6,42.6,16.2-14.7,5.6-28.3,10.8-42.6,16.1,12.7,8.4,24.8,16.4,38,25.2-15.5,2.2-29.9,4.2-45,6.3,10.5,11.1,20.5,21.6,31.4,33.1-15.7-1.4-30.1-2.7-45.5-4.1,7.8,13.2,15.3,25.8,23.2,39.2-13.5-4.3-26-8.3-38.5-12.3-1.4-.4-2.9-1.8-4.1-.4-.8,1,.4,2.5.8,3.7,4,12.5,8,25,12.4,38.5-13.5-8-26.1-15.5-39.2-23.3,1.4,15.2,2.7,29.7,4.1,45.4-11.4-10.7-21.9-20.7-33.1-31.2-2.1,15.2-4.2,29.6-6.3,45-8.6-13-16.6-25.1-25.2-38-5.5,14.4-10.7,28.1-16.2,42.6h0ZM260.4,304.8c1.9-.5,2.2,1.7,3.1,3.2,1,1.7.2,2.7-1.1,3.7-2.6,2-5.1,4.2-7.8,6.2-2.1,1.6-3.1,3-1.5,5.7,1.6,2.8,3.3,1.9,5.3,1,2.8-1.3,5.8-2.4,8.5-4,2.8-1.7,4.1-.3,5.8,1.5,2,2.2.2,3.1-.9,4.5-2,2.6-3.9,5.4-6,7.9-1.5,1.8-2.1,3.1,0,4.9,1.7,1.4,2.8,2.5,4.9.5,2.7-2.5,5.8-4.4,8.8-6.6,1.4-1,2.5-2,4.2-.2,1.4,1.5,3,2.3,1.6,4.9-1.8,3.3-2.9,7-4.7,10.4-1.4,2.6.5,3.1,1.8,4.2,1.5,1.2,2.5,1.6,4-.3,2.1-2.9,4.8-5.5,7.1-8.4,1.7-2.1,3.2-2.2,5.6-1.1,2.4,1.2,1.9,2.7,1.5,4.6-.7,3.2-1,6.6-2,9.7-.8,2.4-.8,3.4,1.9,4.3,2.7.9,4,.5,5-2,1.3-3,3.1-5.9,4.4-8.9,1-2.2,2.5-2.9,4.7-2.3,2,.5,3,1.7,2.9,3.9,0,3.5.2,7,.3,10.5,0,1.9-.3,3.7,2.7,3.5,2.1-.2,4.2.6,4.5-2.9.4-3.6,2-7,2.7-10.5.4-2.2,1.5-2.7,3.3-2.6,1.9,0,3.5,0,3.9,2.7.7,3.7,2.3,7.3,2.8,11,.5,3.4,2.8,2,4.5,2.3,2.3.3,2.7-1,2.7-3,0-3.7,0-7.3,0-11,0-2.5,1.4-3.5,3.6-4s3.3.5,4.2,2.4c1.4,3,3,5.9,4.4,8.9,1,2.3,2.2,3.2,4.9,2.2,2.8-1,2.9-2.3,2.1-4.7-1-3.2-1.4-6.4-2-9.7-.3-1.8-.5-3.4,1.8-4.5,2.2-1,3.7-.8,5.1,1,2,2.6,4.4,5,6.3,7.7,1.5,2.1,2.5,2.8,5.1,1.2,2.5-1.5,2.4-3,1.3-5.2-1.5-3.1-2.8-6.3-4.4-9.4-1.3-2.5.2-3.5,1.7-5,1.7-1.7,2.8-.7,4.2.4,2.9,2.2,6,4.2,8.8,6.6,1.9,1.6,3.2.9,4.7-.4,1.8-1.5,1.7-3,.4-4.8-2.1-2.8-4-5.8-6.3-8.3-1.9-2.1-1.3-3.3,0-5.3,1.7-2.7,3.2-1.3,4.9-.5,2.9,1.3,5.8,2.4,8.6,3.9,2.4,1.3,3.8,1.3,5.5-1.3,1.8-2.8.3-3.7-1.5-5.1-2.5-1.9-4.8-4.1-7.3-6-1.6-1.2-2.6-2.3-1.6-4.5,1.1-2.5,2.7-3.1,5.1-2.6,3.2.7,6.5,1.1,9.7,2.1,2.9.9,3.7-.6,4.5-2.8,1-2.6-.4-3.5-2.4-4.5-3-1.4-5.9-3.1-8.9-4.4-2-.9-2.9-2-2.2-4.2.6-2,1.3-3.6,4-3.3,3,.3,6,.2,9,0,1.8-.2,4.3,1.5,4.9-2.3s-1.3-4.9-4.3-5.6c-2.7-.6-5.4-1.5-8.1-2-2.3-.4-3.5-1.1-3.7-3.7-.2-3.1,1.9-3.6,3.9-4.2,3.3-1,6.7-1.6,10.1-2.4,2.8-.7,2-2.9,2.1-4.8.1-2.5-1.6-2-3-2.1-3.8-.2-7.6-.5-11.5-.7-2.4,0-3-1.6-3.5-3.5-.5-2.1.7-3,2.3-3.8,3-1.5,5.8-3.3,8.9-4.5,2.9-1.1,3.2-2.4,2.2-5.3-1-2.9-2.6-2.2-4.6-1.7-3.2.7-6.5,1.2-9.7,2-2.2.6-3.3.2-4.4-1.9-1-2-1-3.3.7-4.8,2.7-2.2,5.2-4.7,8-6.8,2-1.5,2.7-2.8,1.1-5.1-1.5-2.2-2.9-2.2-5-1.1-2.8,1.5-5.8,2.5-8.5,4-2.2,1.2-3.6,1.2-5.5-.9-2-2.2-.8-3.4.4-5,1.9-2.5,3.5-5.3,5.5-7.6,1.7-2,2.5-3.1.2-5.5-2.6-2.6-3.7-.9-5.5.5-2.4,2-5.1,3.7-7.5,5.7-1.6,1.3-2.8,2-4.7.2-1.7-1.5-2.5-2.8-1.3-5.1,1.6-3.1,2.8-6.4,4.4-9.4,1.2-2.2.7-3.4-1.4-4.7-2.1-1.2-3.5-1.2-5,.8-2,2.6-4.2,5.1-6.3,7.7-1.3,1.6-2.3,2.8-4.9,1.6-2.8-1.3-2.5-3.1-2.2-5.3.6-3.1,1.1-6.1,1.9-9.2.5-2,1.5-3.6-1.6-4.5-2.6-.7-4.2-.7-5.4,2.1-1.2,2.9-2.7,5.7-4.2,8.5-.8,1.5-1,3.7-3.8,2.9-2.3-.7-4.3-1.4-4.1-4.5.2-3.5-.2-7,0-10.5.3-3.3-2-2.6-3.8-3.1-2-.6-3-.2-3.4,2.1-.7,3.7-2.1,7.3-2.8,11-.4,2.4-1.6,3-3.7,3-2.1,0-3.3-.5-3.7-2.9-.6-3.4-1.9-6.7-2.7-10-.5-2.1-.6-3.9-3.6-3.3-2.4.5-3.9.9-3.6,3.9.3,3.1-.2,6.3-.1,9.5,0,2.6-.6,3.9-3.5,4.7-3.2.9-3.3-1.1-4.2-2.7-1.6-2.9-3.2-5.8-4.5-8.9-1.1-2.6-2.7-2.7-4.9-1.9-2.3.8-2.9,1.9-2.1,4.4,1,3.1,1.1,6.5,2,9.7.7,2.3.4,3.6-1.9,4.8-2.3,1.2-3.6.7-5-1.1-2.1-2.8-4.5-5.4-6.5-8.2-1.7-2.4-3.2-1.4-5-.4-2.1,1.1-2.3,2.2-1.3,4.3,1.7,3.2,2.7,6.8,4.4,10,1.2,2.2.3,3.3-1.2,4.6-1.7,1.6-3,1.4-4.7-.1-2.4-2.1-5-3.8-7.5-5.7-1.8-1.4-3-3-5.6-.5-2.5,2.3-1.5,3.7,0,5.6,2,2.6,3.9,5.4,6,7.9,1.4,1.6,1.9,2.7.2,4.5-1.5,1.7-2.7,2.6-5,1.3-3-1.7-6.4-2.7-9.5-4.3-2.2-1.2-3.4-.8-4.8,1.4-1.4,2.3-1,3.4,1,4.9,2.7,2,5.1,4.3,7.7,6.3,2.1,1.6,2.4,3,1.2,5.4-1.3,2.5-2.7,2.2-4.9,1.5-3-.9-6.2-1-9.2-1.8-2.2-.6-3.7-.9-4.6,1.8-.9,2.5-.5,4,2,5.2,3.2,1.4,6.2,3.1,9.3,4.7,1.3.7,3,1.3,2.2,3.2-.7,1.7-.7,3.9-3.6,3.9-3.7,0-7.3.6-11,.6-2.5,0-3.4.8-3.6,3.3-.3,2.7.8,3.5,3.2,3.9,3.4.6,6.7,1.8,10,2.5,2.2.5,2.9,1.6,2.8,3.8-.2,2.1-.7,3.3-3.1,3.7-3.4.6-6.7,2-10.1,2.5-3.3.5-2.7,2.4-2.7,4.6,0,2.7,1.4,2.8,3.5,2.8,3.5,0,7,.3,10.5,0,2.9-.3,3.1,1.5,3.8,3.3.9,2.3-.4,3.4-2.1,4.3-3.1,1.6-6.2,3.3-9.3,4.6-2.4,1-2.8,2.5-2,4.7.8,2,1.5,3.4,4.3,2.4,3.6-1.2,7.4-1.6,11.9-2.4h0Z"/>
  <path class="cls-2" d="M433,635.9c-.2-.2-.2-.4,0-.7-.2-.4-.5-.9-.7-1.3-1.4-5-2.9-10-4.4-15,.1-.3.3-.5.4-.8-.5,0-1,0-1.4-.1h0c-1.2-4.3-2.6-.7-3.9,0h-4.8c-1-1.4-2-1.6-3.1,0-3.7,1-7.6.5-11.3.3-3.3-.2-4.6,1.2-5.4,4.1-1.7,6.2-3.5,12.2-5.3,18.3-2.6,1.6-5.5.8-8.3,1-3.2.3-6.6-.9-9.7.9-.8.1-1.7.2-2.1-.8,0-2.1,0-4.2,0-6.3h0c4.4-4.4,4.7-10.2,5-16,0,0,0,0,0,0,4-3.9,4.3-8.9,4.2-14,4.2-16.7,9.7-33,14.7-49.4,3.1-10.2,3.3-10.1,13.9-10.1,4.8,0,9.7,0,14.5,0,1.9,0,3.4.3,4.1,2.7,6.9,22.6,13.9,45.1,20.9,67.7,0,.3,0,.7,0,1,0,1.2-.3,2.5,1,3.2h0c0,1.8,0,3.8,0,5.7,0,2.1.5,3.5,2.9,3.3,1.1,1.7,1.9,1.7,3.1-.2,3.2-4.9,6.6-9.6,9.9-14.3,10.8-15.5,21.7-31,32.5-46.6.7-1.1,1.4-2.2,2.3-3.7-2.5-1-4.8-.5-7-.5-10,0-20-.2-29.9,0-4,0-5-1.3-5-5.2,0-13.2,0-13.2,13.3-13.2s34.6.1,51.9,0c4,0,4.7,1.3,5.1,5.1.9,7.5-3,12.8-7.1,17.9-7.5,9.4-13.2,20-20.4,29.6-5.6,7.4-10.7,15.2-15.9,22.9-.8,1.2-3.2,2.8,0,4.1.4.8.7.7,1.1,0,2.3,0,4.6,0,6.9,0,.6.9,1.6,1.2,2.6,1.2h27c1,0,2-.2,2.6-1.2.6,0,1.2,0,1.9,0,1.1,3.2.9,6.5,1.1,9.8.2,4.5-1.3,6.5-6.3,6.4-25.1-.2-50.2,0-75.3-.1-5.6,0-11.9,1.7-14.5-5.8,0-.2-.6-.2-.9-.2h0ZM420.8,589h0c0-2.1.3-4.3,0-6.4-.4-2.6,0-5.9-3.8-6.6-1.2-4-2.5-8.1-3.7-12.1-1.3.4-1.2,1.5-1.4,2.5-2,9-4.3,18-6.9,26.9-2.5,8.7-2.4,8.7,6.9,8.7,1.3,0,2.7,0,4,.2,2,2.8,4,2.8,6,0,.6,0,1.2-.2,1.8-.2,2.8-5.2-.3-9-3-12.9h0ZM400.4,617.5c-.3,0-.5-.2-.7-.2,0,.1,0,.2,0,.4.1,0,.3,0,.6-.2h0Z"/>
  <path class="cls-1" d="M243.3,572.8c1.1,21.8.6,43.4.8,65,0,3.9-.6,5.8-5,5.3-4.9-.6-11.5,2-14.3-1.1-2.4-2.7-.8-9.2-.8-14,0-25.8,0-51.6,0-77.4,0-3.4.7-4.7,4.3-4.5,5.7.3,11.3.2,17,0,3.1-.1,4.7,1.1,6.2,3.8,11.2,20.1,23.3,39.7,32.2,61.1.2.5.2,1.4,1.6,1.3-1.9-20.2-1.1-40.4-1.4-60.6,0-4.2.8-6.1,5.4-5.6,3.5.4,7,.3,10.5,0,3.7-.3,4.3,1.2,4.3,4.5-.1,29.3-.2,58.6,0,87.9,0,3.9-1.1,4.9-4.7,4.5-3.5-.3-7-.5-10.5,0-6.2.9-9.3-1.7-12.1-7.2-10.9-21.2-23.6-41.3-33.5-63.1h0Z"/>
  <path class="cls-1" d="M193.4,578.8c0-9.7.1-19.3,0-29,0-3,.6-4.2,3.8-4,5,.2,10,.2,15,0,2.3,0,3.2.7,3.1,3.1-.1,19.7.8,39.4-.5,58.9-1.4,22.3-14.8,36.1-38.9,36.2-8.5,0-16.6-1.1-23.8-5.7-9.3-6-13.7-15.4-14.9-25.9-2.5-21.2-.6-42.6-1.2-63.8,0-2.2.7-2.8,2.9-2.8,5.2.1,10.3.3,15.5,0,3.4-.2,3.8,1.2,3.8,4.1,0,18.2-.2,36.3,0,54.5,0,6.5,1.3,12.8,6.2,17.8,7.5,7.5,20.2,5.9,25.5-3.4,3.3-5.7,3.3-12.1,3.4-18.4,0-7.2,0-14.3,0-21.5h0Z"/>
  <path class="cls-2" d="M329,643.8c-2.3,0-4.7,0-7,0-.2-1.5-1.2-2.1-2.5-1.8-5.3,1.3-5.7-1.7-5.6-5.8.2-9.8,0-19.7,0-29.5,0-17,0-34,0-51,0-3.2.4-5,4.4-6.2,4.5-1.4,8.7-1.4,13.1-1.6,1.6,0,3.9.9,4.5-1.8,8.9-.4,17.8-.2,26.3,2.8,7.5,2.6,13.9,6.7,16.8,14.7-.7,2.9.5,5.6,1.1,8.2,1.4,6.3-1.7,12.2-1.1,18.4-.2,2.4-1.7,4.1-3.2,5.8-.8,0-1.5.2-1.8,1.2h.1c-5.7,3.3-11.9,5.9-17,10.2-5,2-10.3,2-15.5,2-7.3-.1-7.3-.4-7.8,6.7-1.9,6.4-.6,13-.8,19.5-.1,3.6-1,6.4-4.1,8.3h0ZM359.9,582.8h0c1.4-.7,1.4-1.7.5-2.8l.2-5.2c1-6.2-2-10.4-7.6-10.8h0c0-1.7-1.2-2-2.6-2.1-5-.6-10.1,1.3-15.1-1.2-1.4-.7-.9,1.6-1,2.6,0,.3,0,.5-.3.7-2.2.4-1.8,1.9-1.6,3.4,1.4,7.9.7,15.9.4,23.8,0,1.2-.7,2.3.5,3.1,1.4.8,2.8.9,3.9-.7l3.9.3c2.4,1.2,4.8,2.6,5.8-1.6l6-1.7c3.9,2.7,3.3-1,4.1-2.9h0c2.2.1,2.1-1.4,2.1-2.9h0c.9-.4,1-1.2,1-2.1h0Z"/>
  <path class="cls-6" d="M299,26.3c.4,2.6-.8,3.4-3.3,3.8-33,4.8-63.7,16-92.3,33.2-1.2.8-2.4,1.7-4,1.8-1.4,0-2.2-.6-2.8-1.6-.6-1-.4-1.9.4-2.7,1.7-1.8,3.3-3.5,5.6-4.8,16.3-9.3,33.2-17.5,51.2-22.8,13.6-4.1,27.3-8.1,41.5-9.9,2.4-.3,4.5-.3,3.9,3.1h0Z"/>
  <path class="cls-6" d="M410.8,40.2c-.3,0-.6,0-.8-.2-2.9-5.2-7.8-3.6-12.2-3.8-10.5-2-20.9-5.1-31.6-6.2-3.2-.3-1.9-2.9-2.1-4.7-.2-2.2,1.2-2.6,2.8-2.2,7.9,1.9,16,2.4,23.9,5.4,6.8,2.6,14.4,3.4,21.5,5.6,5.3,1.7,10.5,4,15.7,6.1,2.5,4.4,6.4,6.2,10.4,4.8,10.2,3.6,19.1,9.7,28.4,15.1,2.1,1.2.4,2.2-.2,3.1-1.1,1.4-1.6,3.9-4.4,2-10-6.5-20.7-11.8-31.5-16.8-3.2-1.5-5.8-4.2-9.6-4.2-.5-.8-1.2-.9-2.1-.9h0c-.4-.9-1.2-1-2.2-.9h0c-1.1-3.2-3.9-1.9-6.1-2.1h0Z"/>
  <path class="cls-6" d="M296.2,61.9c1.8,0,2.8.3,2.9,2.5,0,2.5-.3,4.2-3.2,4.6-8.2,1.2-16.2,3.3-24.1,5.6-16.5,4.8-32,11.8-46.7,20.6-1,.6-1.9,1.5-3,1.7-2.1.4-4.3.6-5.5-2-1.3-2.8,1.3-3,2.6-3.9,19.3-12,39.9-20.7,62-25.9,5-1.2,10-2.1,15-3.2h0Z"/>
  <path class="cls-6" d="M375.1,64c10.5,1,20.3,4.7,30,8.2,13.6,4.8,26.5,11.3,38.8,19,1.3.8,3.8,1.2,2.3,3.9-1.3,2.2-3.1,3.2-5.5,1.9-6.6-3.5-12.9-7.4-19.7-10.7-14.3-6.9-29.2-12.3-44.8-15.4-.8-.2-1.5-.7-2.2-1.1-.5-2.4-2.5-1.6-4-1.7-2.4,0-3.8-1.2-4.6-4h9.7,0Z"/>
  <path class="cls-6" d="M457.6,88.2c-2.4-.1-4.6-1-6.3-2.6-7.4-6.8-14.7-13.8-21.8-21.2,10.1,2.2,20.5,2.6,30.1,6.5,2.7,1.1,4.4,2.8,5.9,5,3.2,4.6,6.3,9.3,9.4,14-.9,3.2-2.8,2.2-4.9,1.4-4.1-1.4-7.9-3.5-12.5-3.1h0Z"/>
  <path class="cls-2" d="M227,70.9c-5.4,3.6-9.7,8.5-14.1,13.1-1.5,0-3,0-2.8,2.2,0,0,0,0,0,0-3.9-1.6-6.4,1-9.1,3.1-.3.3-.6.5-.9.8-1.8.4-4.3-1.3-5.1,1.9l-.4.2h-.5c-3.4.7-4.4-1.6-5.2-4.1,3.6-5.3,7.2-10.6,10.8-15.9,1.9-2.7,5-2.2,7.6-2.8,5.7-1.3,11.6-2.2,17.4-3.2,2.9-.2,3.5,1.5,3.1,3.9v.2c-.4.3-.7.6-1,.9h0Z"/>
  <path class="cls-6" d="M470.7,109.1c5.1,0,10.6,0,16,0,.8,0,1.7.3,2.3.8,5.8,5.4,11.2,11.1,16.5,18.1-5.6,0-10.3,0-15.1,0-1.5,0-2.5-.6-3.4-1.6-5.3-5.7-10.6-11.4-16.2-17.3h0Z"/>
  <path class="cls-6" d="M139.2,118c1.1,6.3,2,11.2,2.8,16.2.1.7-.2,1.7-.7,2.3-4.7,6.6-9.2,13.3-13.8,21.5-1.3-6.8-2.4-12.4-3.4-17.9,0-.6.2-1.3.5-1.9,4-6.8,9-13,14.6-20.3h0Z"/>
  <path class="cls-6" d="M422.1,503.6c-7.2,3-14.2,5.5-21.5,7.6-1.4.4-2.5.2-3.7-.4-4.8-2.4-9.6-4.8-15.3-7.7,8.9-2.6,16.7-4.9,24.5-7.1,2.8-.8,4.7,1.4,6.8,2.4,3.1,1.5,6.4,2.7,9.3,5.3h0Z"/>
  <path class="cls-6" d="M579,275.4c-.4,7.1-.8,14.2-1.2,21.3,0,1.6-.8,2.9-2,3.9-4.1,3.6-8.1,7.2-12.6,11.2-.8-4.8,1.1-8.8,1.1-13,0-1.3.8-2.7.6-3.9-1.9-10.9,6.9-14.5,12.8-20.1.4.2.9.4,1.3.6h0Z"/>
  <path class="cls-6" d="M460.2,484.6c-7.3,4.8-14.3,8.4-21.4,11.7-1.5.7-2.6,0-3.7-.4-4.8-1.4-9.7-3-15.2-4.8,8.2-4,15.7-8,23.4-11.3,3-1.3,6.3,1.4,9.4,2.1,2.3.5,4.5,1.5,7.6,2.6h0Z"/>
  <path class="cls-6" d="M527.3,159.3c-5.6-.9-10.4-1.7-15.3-2.5-.7-.1-1.5-.7-2-1.4-4.8-6.6-9.6-13.2-14.8-20.4,6.8,1.9,14.4.4,19,4.5,5.6,5,9.5,12.1,13.1,19.8h0Z"/>
  <path class="cls-6" d="M547.3,152.4c3.8,7.7,6.8,14.1,10,20.5.9,1.8,1.1,3.5.4,5.3-1.7,4.9-3.5,9.9-5.6,15.7-3.7-8.3-7.1-15.7-10.2-23.3-1.1-2.8.9-5.4,1.8-8,1-3,2-5.9,3.5-10.1h0Z"/>
  <path class="cls-6" d="M119.2,305.4c1.6,7.7,2.8,14,4.2,20.3,1.2,5.1-1.6,14-5.8,17-2.2,1.6-3.1-.3-3.5-1.7-1.7-5.9-3.1-11.8-4.6-17.7-.2-.6-.2-1.4.1-1.9,3-5.1,6-10.1,9.5-16h0Z"/>
  <path class="cls-6" d="M519.4,419.3c-2.5.1-3.4-.8-2-2.9,3.8-5.6,7.6-11.2,11.6-16.7,1.2-1.7,13.1-4.8,14.9-4.1,1.8.7,1.5,1.8.8,3.2-3.2,5.8-6.3,11.8-10.9,16.4-3.7,3.6-9.6,2.5-14.3,4h0Z"/>
  <path class="cls-6" d="M564.3,191.5c3.5,8.1,6.5,15.9,6.9,23.7.3,5-3.5,10.8-9.5,13.8-1.9-7.3-3.9-14.3-5.7-21.4-.4-1.6.8-2.8,1.6-4,2.2-3.9,4.3-7.7,6.8-12.1h0Z"/>
  <path class="cls-6" d="M239.9,503.5c5-2.7,9.4-5,13.8-7.3,1.4-.7,3-.5,4.4,0,5.8,1.9,11.7,3.7,17.5,5.8,3,1.1,1,3.2-.2,4-5.6,3.5-11.3,6.8-18.4,3.9-5.3-2.2-10.8-4-17-6.3h0Z"/>
  <path class="cls-6" d="M117.2,270.9c-.4,7.9.2,14.9.9,21.9.3,2.7-1.1,4.4-2.7,6.1-2.6,2.9-5.3,5.8-8.5,9.3-1.5-8.6-3.7-17-1.8-24.7,1.2-4.8,6-9.5,12.1-12.6h0Z"/>
  <path class="cls-6" d="M546.1,269.5c4.3,4.7,7.8,8.6,11.3,12.6,2.2,2.6.5,5.7.5,8.6,0,5.6-.8,11.2-2,17.2-7-6.3-13.3-12.4-10.7-22.8,1.2-4.7.5-9.6.9-15.6h0Z"/>
  <path class="cls-6" d="M280,494.9c-8.1-1.1-15-4.2-22.2-6.2-1.4-.4-2.1-1.6-2.7-2.8-1.4-2.6-2.8-5.3-4.1-8-.7-1.4-2.6-3-1.4-4.4,1.2-1.4,3.3-.7,5.1.2,1.9,1,4,1.5,6.1,2.2,9.1,3,15.5,9.3,19.3,18.9h0Z"/>
  <path class="cls-6" d="M98.3,356.4c5.9,2.3,10.5,4,15,5.8,1,.4,1.5,1.1,2,2.1,2.4,5.6,4.9,11.1,7.4,16.7.5,1.2,1.2,2.7,0,3.7-1.1.8-2.4,0-3.7-.3-8.9-1.9-13.6-7.8-16.1-16.1-1.1-3.6-2.7-7.1-4.5-12h0Z"/>
  <path class="cls-6" d="M104.3,264.8c.3-5.3.6-10.1.9-14.9.5-7.4,6.8-9.9,11.6-13.6,2-1.5,3.4.6,3.1,2.8-.9,6.2-1.9,12.4-2.1,18.6,0,1.1-11.4,11.1-12.4,11-3.1-.6,0-3.2-1.2-3.9h0Z"/>
  <path class="cls-6" d="M120.1,395.9c1,.2,2,.3,3,.5,1.2,2.6,3,1.8,4.8.9,3.2.2,5.3,1.7,7.1,4.5,3.8,6,8.1,11.6,12.2,17.5-13.3,1.3-22.7-5.5-29.3-21.2,1.4,0,2-.8,2.1-2.2h0Z"/>
  <path class="cls-6" d="M118.1,175.2c-1.5,6.3-4.7,11.8-7.2,19.3-2.4-6.6-4.2-11.8-6.1-16.9-.4-1-.5-1.7,0-2.8,3.3-7,6.5-14.1,10.5-21.1,3.7,3.8,1.7,9.4,4.9,13,.3,3.1-2.5,5.4-2.1,8.5h0Z"/>
  <path class="cls-6" d="M94.2,320c5.8,2.1,9.5,5.6,10.4,12.2.9,5.9,3.2,11.7,4.8,17.5-12.6-3.6-18.8-11.2-19.5-24.2,0-2.9-.4-6.2,4.3-5.5h0Z"/>
  <path class="cls-6" d="M85.2,292c-1.6-5.5-.8-11.2-1.2-18.1,7.1,6.2,15.3,10,14.2,20.7-.3,3.6.6,7.2.8,10.9,0,1,1,2.2-.6,3.1-1.5.8-2.6,0-3.6-.9-2.3-2.1-4.6-4.3-6.9-6.5.5-3.5-1.8-6.1-2.8-9.2h0Z"/>
  <path class="cls-6" d="M157,448c-6.8-5-11-12.2-17.5-18,5.7,0,10.4,0,15.2,0,1.3,0,2.3.5,3.1,1.3,5.1,5.2,10.2,10.4,15.3,15.6-5.2,2.3-10.7.5-16.1,1.1h0Z"/>
  <path class="cls-6" d="M214,481c2.8-1.6,5.3-1.5,8.3.1,6.4,3.4,13,6.3,20.2,9.7-5.9,2.9-11.7,4.8-17.5,5.5-3,.4-6.5-2.7-9.7-4.4-2.5-1.3-4.9-2.8-7.3-4.1-1.6-3.9,3.8-3.2,3.9-6h0c.8,0,1.6,0,2.1-.8h0Z"/>
  <path class="cls-6" d="M209,459.4c-.3,1.3-.2,2.7-.9,3.2-1.1,1-2-.3-2.9-.9-4.4-2.8-9.2-5-13.1-8.6-2.7-2.5-5.9-13.1-4.7-16.5.8-2,2.1-1.8,3.5-.7,5.1,3.9,10.4,7.6,15.3,11.9,3.5,3,.8,8.1,2.8,11.6h0Z"/>
  <path class="cls-6" d="M131,189.9c-.6,0-1.1.1-1.7.2-.4.2-.8.5-1.3.7-.3,0-.7,0-1,.1-.3-.3-.7-.6-1-1-.1-.4-.3-.9-.4-1.3-.1,0-.4.2-.3.2.2.4.5.7.7,1.1,0,.4.1.9.2,1.3-2.2.9-4.4,1.9-7.5,3.2,2.6-8.5,6-15.5,9.6-22.5.9-1.8,3.1-1.7,4.8-2.3,4.2-1.5,8.3-3,13.7-4.9-3.2,5.8-5.8,10.5-8.4,15.3-2.2.6-2.4,2.2-2.1,4.1,0,0,0,0,0,0-1.1.4-1.2,1.2-1,2.1h0c-2.5,0-3.6,1.6-4.3,3.6h0Z"/>
  <path class="cls-6" d="M499.9,436.8c.3-.3.5-.6.8-.9.4-.4.8-.8,1.2-1.2.3-.3.6-.6.8-.8.4-.4.8-.8,1.2-1.2,1-1.9,2.5-2.9,4.8-2.8,4.4.1,8.9,0,13.9,0-4.6,6.8-10.2,12.8-16.6,18-5.4-.5-10.9,1.1-16.1-1.1,2.3-2.3,4.7-4.6,7-6.9,1.4,0,2.1-.6,2.1-2.1h0c.3-.3.7-.7,1.1-1.1h0Z"/>
  <path class="cls-6" d="M521.2,398.2c-2.7,5.3-6.5,9.8-10.6,14.8-2.2-4.9-2.4-9.8-3.7-14.4-.4-1.7.5-3.4,1.7-4.5,5.5-5.2,7.3-12.7,11.6-18.9,2,2.5,1.4,5.4,2.4,7.9-.4.3-1.1.8-1,1,1.3,4.7,1.6,9.2-1.1,13.5,0,0,.5.4.7.6h0Z"/>
  <path class="cls-6" d="M527.9,359.9c2.2-5.9,4.4-11.9,7.1-19.1,2.6,6.5,4.9,11.8,6.8,17.3.4,1.1-.6,2.8-1.2,4.1-2.3,4.9-4.7,9.8-7,14.7-1.7-.9-3.6-1.4-4.8-2.9h0c0-.8,0-1.6-.9-2h0c-.2-1.5.8-3.5-1.8-4,0-.3,0-.7-.1-1,1.7-2.1,2.1-4.5,1.9-7.1h0Z"/>
  <path class="cls-6" d="M541.9,315.9c-.4-3.2,1-6.1,1.3-9.3,10.6,8.9,11.7,20.3,3.6,38.5-2.8-2.6-4.1-5.9-5.8-8.9.1-3.3-1.6-6.6-.3-9.9l-.3.3s-.3-.3-.3-.3c3.9-2.9,1.1-7,1.9-10.4h0Z"/>
  <path class="cls-6" d="M365.7,42.1c14.4,2.5,27.2,5.4,39.8,9.7,2.6.9,2.9,2.1,2.1,4.4-.8,2.2-1.5,3.1-4.2,2.1-12-4.3-24.4-7.2-37-9.1-3.7-.5-2.2-3.1-2.4-4.9-.2-2.2,1.5-2.2,1.7-2.2h0Z"/>
  <path class="cls-6" d="M138.9,153.6c0-.2,0-.4.2-.5.3-.4.6-.8.9-1.3,2-4.4,5.1-8.1,7.8-12,.8-1.2,1.8-1.6,3.3-1.9,5.4-.8,10.7-1.8,16.7-2.8-5.1,6.7-9.8,12.8-14.5,19-.3.5-.7,1-1,1.5,0,.2,0,.4-.3.5-2.4,0-4.9,0-7.3,0s-4.7.4-5.7-2.5h0Z"/>
  <path class="cls-6" d="M218.6,464.1c-.8-.6-.5-1.4-.5-2.2.1-.1.2-.2.3-.3-.2-.2-.4-.4-.6-.6-1.6-1.5-.5-3.5-.8-5.6,4.8,4.6,11,6.1,16.5,8.8,3.8,1.8,6.1,4.1,6.8,8.3.6,3.3,2.7,6.3,2.6,10.7-6.4-3.2-12.2-6.1-18.1-9-.4-.3-.8-.7-1.2-1l-.2.2c-.7-3.6-1.8-7-5-9.3h0Z"/>
  <path class="cls-6" d="M523.1,123.1c.7-2.2,1.8-2,3.1-.5,4.3,4.8,8.5,9.6,11.7,15.2,1.7,2.9,0,5.8-.7,8.5-.6,2.6,1,6.7-2.4,7.4-3.6.8-4.1-3.7-5.7-6-1.2-1.6-2.8-3.3-3.2-5.5.3-1.8-.4-3.2-1.5-4.5-3.5-3.9,0-8.7-1.6-12.8h-.1c1.3-.4,1.4-1,.4-1.8h0Z"/>
  <path class="cls-6" d="M155.9,398c-1.1,4.9-2.1,9.8-3.3,15.3-3.8-3.6-6.1-7.4-8.5-11.3.8-.6.4-.8-.3-.8h0c.2-1.6.4-3.2-2.1-2.9,0,0,.1,0,.1,0-.3-.4-.7-.8-1-1.2h0c-1.9-3.9,1.2-8.1-.8-12-.5-3.4,1.3-6.3,1.9-9.6,2,2.8,4.2,5.1,5.1,8.3-.7,3.3-.3,5.9,3.8,6.2l.2.2v.3c.3.5.7,1,1.1,1.5.3.3.5.7.8,1,0,.9.2,1.7,1.2,2h-.1c.3.3.7.7,1,1.1h0c0,.8,0,1.5.8,2h0Z"/>
  <path class="cls-6" d="M547,260c-3.8-1.7-1.6-5.3-2.2-7.9-1-4.3-1.3-8.7-1.8-13.1-.1-1-.7-2.4.9-3,1.2-.4,2.2,0,3.2.8,1.9,1.7,3.9,3.4,5.9,5.1,1.1,4.2,3.6,8,3.7,12.5,0,1.9-.3,3.9,1.2,5.5.8,3,1.1,6,.6,9.9-2.1-1.9-3.8-3.3-5.4-4.7-.5-3.5-2.2-5.6-6-5.2h0Z"/>
  <path class="cls-6" d="M192.1,110.2c-5.4,5.4-10.8,10.7-16.1,16.1-1.9,2-4.2,1.6-6.5,1.6-3.5,0-7,0-10.5-.1-.1-.4-.2-.7-.3-1.1h0c7.2-1.9,9.2-8.8,13.2-13.8.2-.2,0-.6,0-1h0c.9,0,1.7,0,1.9-1.2h0c6.1-1.4,12.2-.3,18.3-.6h0Z"/>
  <path class="cls-6" d="M400,490c-4.3,1.3-8.5,2.7-12.8,3.9-1,.3-2.4.9-3-.7-.4-1,.6-1.7.8-2.5,2.7-9.4,9.5-13.4,18.5-15.2,2.2-.4,4.3-1.5,6.5-2.3.4,1.7.8,3.3,1.2,5,0,0,0,0,0,0-.3,0-.5.1-.8.2.2.2.3.4.4.6-.1.3-.2.7-.3,1-3.3,0-2.7,2.2-2.5,4.2h0c-1.9.6-3.3,1.7-3,4.1,0,0,0-.1,0-.1-1.9.2-4.4-1.4-5.1,1.9h0Z"/>
  <path class="cls-2" d="M510.6,122.2c-4.9-5.3-9.8-10.6-14.7-15.9,0-1,0-1.8-1-2.3,0-.6,0-1.2,0-1.8,1.6-2,1.9-4.1,0-6.1,0-.7-.1-1.4-.2-2,1.5-.7,2.4-2.5,4.5-2h0c0,.9.1,1.7,1.3,1.7h0c-.7,2.5,1.2,2.2,2.7,2.3,3.7,1.5,4.1,6.4,7.9,7.9,1.6,5.2-.2,10.6.9,15.9.2,1-.3,1.9-1.3,2.4h0Z"/>
  <path class="cls-6" d="M464,473.9c-1.3,0-2.7.3-4,0-2.4-.4-2.8-2.1-1-3.4,5.8-4.4,11.8-8.5,17.7-12.7,1.2-.9,2.2.1,3.2.3-1,3,1.4,1.6,2.5,1.9,2.8.7,6.3-1.1,8.2,2.4,0,0-.2.2-.2.2-.3,0-.5-.1-.8-.2.2.2.4.4.6.6-4.9,1.8-7.3,6.8-11.8,9.1-4.2-.6-8.3,3.3-12.7,0-.7-.6-1.7.7-1.8,1.8h0Z"/>
  <path class="cls-2" d="M128.1,205.1c0,1.1.2,2.2-1,2.9-3.6,1.1-1.4,4-1.9,6.1h0c-5.1,1.8-2.5,6.2-3.1,9.5-4.4,2.5-8.8,5-13.9,7.9,1.3-7.1,2.3-13.5,4.9-19.5,2.7-1.8,4.3-4.5,5.9-7.2h0c.4-.2.8-.5,1.2-.8h0c1.6-.2,3.8.8,4-2.1h0c2.1.1,4,.5,4.2,3.2h0Z"/>
  <path class="cls-2" d="M161.2,418c0-.7,0-1.3,0-2,.1,0,.3-.2.3-.2,0-.2,0-.5,0-.7.2-.4.3-.7.5-1.1.5-.1.9-.2,1.4-.4-.4-.2-.8-.4-1.2-.6-.4-1.6-.2-3.1,1.4-3.8,1.6-.7,2.3.7,3.1,1.7,1.8,2.3,3.6,4.6,5.4,6.9-.8,3.6,1.8,4.2,4.3,4.8h0c0,.8.3,1.1,1,1.1,0,0,0,0,0,0,.3,5.5,1.9,10.9-.4,16.3-3.4-2.6-6.4-5.5-9-8.9-.4-.4-.8-.7-1.2-1.1-.3-.3-.6-.5-.8-.8-.3-.4-.7-.8-1-1.2h0c0-1.3-.6-2-2-2h0c0-2.8.5-5.7-1.8-8h0Z"/>
  <path class="cls-6" d="M293.1,49.4c-11.6,2.5-23.2,5-34.4,9-2.4.9-3-.4-3.3-1.9-.3-1.5-2-3.5,1-4.4,7.4-2.2,14.7-5.1,22.5-6,3-.8,6.8,2,9.1-2h0c3.8-.2,7.5,0,10.8,2,.2.8.3,1.5-.5,2.1-1.8.2-3.9-1-5.2,1.2h0Z"/>
  <path class="cls-6" d="M475.2,438.1c-.1.7-.2,1.3-.3,1.9-3,4.3-2.8,9.9-5.9,14.1-4.4,4.3-9.6,7.5-15.7,11.2,1.4-6.3,0-12.2,3.5-17.4,1.6,0,3.2.2,3-2.2,0,0,0,0,0,0,4-.3,6.9-2,7.9-6.1,1.6.4,2.2-.3,2.2-1.9h0c.9,0,1.8,0,1.8-1.2h0c1.2.4,2.4,1,3.6,1.5h0Z"/>
  <path class="cls-6" d="M542.4,203.9c4.6,1.2,7.2,4.1,8,8.9.7,4,1.9,8,2.8,12,.4,1.5.3,3.2-1,4-1.2.8-2.8,0-4.1-.8-2.4-1.5-4.8-2.9-7.2-4.4,1.2-4.7-1.4-8.4-2.9-12.4-2.6-6.7-2.4-7,4.4-7.3h0Z"/>
  <path class="cls-2" d="M569.9,238.8c.2-.9.5-1.7,1.6-1.9.2.2.6.5.6.5.6-.5-.2-.5-.3-.8.6-1.6,1.4-3.5,3.2-3,1.7.4.8,2.6,1,4,.7,5,1.2,10.1,1.9,15.2.3,2.5-.3,4.5-1.9,6.3-.3.4-.5.9-.8,1.3h0c-4.3-1.3-3.4,1.5-3.1,3.9h0c-.4.3-.8.6-1.1,1h0c-2,1.1-3.8.9-5.2-1.1h0c0-1,0-2,.2-2.9,1.6-7-.9-14.5,2.8-21.2,0,0,0,0,0,0,.3-.4.7-.8,1.1-1.2h0Z"/>
  <path class="cls-2" d="M87,238.6c0-1.9.2-3.8.3-6.4,7.5,6.7,13.1,13.4,10.4,23.8-2.2,0-4.3,0-2.5,3.2.8,1.3.9,2.8,1,4.3,0,2.4-1.3,2.4-2.8,1.7-3.4-1.6-8-10.2-7-13.8,1.2-4.3.7-8.5.7-12.8h0Z"/>
  <path class="cls-2" d="M200,473.8c-7.8,2.2-14.8,1.9-20.2-5.4-1.6-2.2-5.2-2.6-6.8-5.2,1.2-2.7,3.3-3.3,6.1-3.2,3.1,0,6.2,1.1,9.2,0,1,3.5,4.9,2.9,6.9,4.9-1.8,1.6-2.4,2.8.5,4.1,2.2,1,4.3,1.3,6.6.9h0c-.8,1.3-1.5,2.7-2.2,4h0Z"/>
  <path class="cls-2" d="M563,344.3c-1.9,1.5-3.6,3.1-6,3.8-1.1-1.7-.8-3.2-.2-5.1,1.5-5.1,3.4-10.2,3.2-15.8.9-4.8,5.4-5.4,8.7-7.3,3.2-.2,3.4,1.8,3.2,4.2,0,1.7-2.1,3.4.2,5-.1.6-.2,1.2-.4,1.9-3.1,3-2.6,8.4-7.1,10.5-1,.5-1.8,1.5-1.6,2.8h0Z"/>
  <path class="cls-2" d="M97,226.1c-.7-3.5-3.9-5.7-4.9-9,.5-.3,1.5-.8,1.5-.9-1.3-3.5,1.1-6.9.4-10.4.1-2.8,1.1-5.3,2.2-7.8,2.1-.3,3.7,2.4,6,.9h0c2.7,6.6,1.2,13.5.9,20.2h0c-1.4.7-3.2,1.5-.5,2.9.2.8,0,1.5-.7,2-1.1,2.2-3.4,1.2-5.1,2h0Z"/>
  <path class="cls-2" d="M159,97c1.6-1.6,3.2-3.3,4.9-4.9,2.2-.1,3.1.8,3.2,3.2.3,4.2-.7,8.2-1.6,12.3h0c-1.4,0-2.2.5-1.9,2,0,0,0,0,0,0-7.8.9-8.8,7.9-11.8,13l-.2.3c-.4-.2-.8-.5-1.3-.7,0-2,0-4,0-6,2.3-6,2.6-13,9.1-16.7.3-.1-.2-1.5-.3-2.4h0Z"/>
  <path class="cls-2" d="M128.8,376.1c-1-2-1-4.4-2.8-6,.4-3-.3-5.9-1.8-8.5-1.6-2.8-1.4-5.6.3-7.8,1.8-2.3,1.5-4.5,1.2-6.9,0,0-.1-.1-.1-.1,1.8-.9,2.8,1.4,4.4,1.3.2,0,.3.2.1.5-.6,5.2,1.7,9.6,3.9,14.1,2.6,5.3,0,12.2-5.3,13.6Z"/>
  <path class="cls-2" d="M538.9,192c-1.1,0-2.2,0-3-.9-.7-5.9-5.3-1.9-7.8-3.1-.2-.2-.3-.4-.2-.6-.5-1.8,1.7-4.8-2.2-5.1h0c.2-1,0-1.8-1.1-2.1h0c0-1.9.5-3.7,2.1-5.5-3.9-.7-7.3-1.5-4.5-6.6,3.6,3.6,8.8,3.4,12.7,6h0c0,.9.2,1.7,1.2,2.1,0,0,0,.3,0,.3.7,3.9.4,8,3.6,11.1.8.8,2.9,3.6-.8,4.5h0Z"/>
  <path class="cls-2" d="M496,430c-.6.5-1.1,1.1-1.7,1.6-.4-.7-.9-1.6-1.8-.8-.9.7-.4,1.8,0,2.6h-.2c-1.3,0-1.3.8-1.4,1.7h0c-1.6.4-3.1.8-4.4,1.2-2.6-4.9-1.1-9.7.2-14.4,0,0,0,0,0,0,4.5.6,4.6-5.7,8.7-5.7-.2-1.1-.5-2.2-.7-3.3h0c.9,0,2.6.5,2.8.2,1.9-3.2,2.1.4,2,.6-1.6,4.8.7,10.7-4,14.7-.6.5-.3,1.2.4,1.6h0ZM493.6,426.4c1.6-1.1,2.9-2.1,1.7-3.8,0-.1-.6,0-1.1,0-.2,1.2-.4,2.4-.7,3.7h0Z"/>
  <path class="cls-3" d="M543.7,373.8c1.6-11.3,10.5-14.1,20.2-16.9-1.9,6.1-4.6,11.5-6.4,17.1-2.2,7.1-8,8.1-13.6,9.9.3-2.5,1.5-4.2,4.2-4.8,5.1-1,8.1-4.5,7.6-9.7-.2-2.5-.3-3.4,2.5-3.7,2.5-.3,2.6-3.7,2.1-4.8-1-2.3-2.2.5-3.4.8-1.8.4-2.7,2.3-4.8,2.3-2.9,0-3.3,1.6-2.7,4.4.9,3.6-.6,6.1-4.6,6.6h0c-.3-.3-.6-.6-.9-.9l-.3-.2h0Z"/>
  <path class="cls-2" d="M428,479.1c-1.7.8-3.4,1.7-5.1,2.5,1.2-4.5,0-9.9,5-13,1-.6-.2-2-.6-3.1,0-.2.2-.3.5-.3,4.3,3.7,8.7,1.4,10.1-5.3h0c4.1.1,5.3,1.9,3.5,5.4-.4.7-.5,1.6-.8,2.3-1.6,3.6-3.4,6.8-8.3,6.5-2.9-.2-3.8,1.6-2.9,4.3h-.2c-.4.2-.8.5-1.2.7h0Z"/>
  <path class="cls-3" d="M336,546.1c-.6,2.8-2.8,1.7-4.5,1.8-4.4.3-8.7.3-13.1,1.6-4,1.2-4.4,3-4.4,6.2,0,17,0,34,0,51s.1,19.7,0,29.5c0,4.1.3,7.1,5.6,5.8,1.3-.3,2.3.2,2.5,1.8-6,.3-9.1-2.5-9.1-8.5,0-27.5,0-54.9,0-82.4,0-3.3.5-5.3,4.3-5.5,6.3-.3,12.6-.9,18.8-1.4h0Z"/>
  <path class="cls-2" d="M544.9,375c4-.5,5.4-3,4.6-6.6-.7-2.8-.3-4.4,2.7-4.4,2.1,0,3-1.9,4.8-2.3,1.2-.3,2.3-3.1,3.4-.8.5,1.1.5,4.5-2.1,4.8-2.9.3-2.8,1.3-2.5,3.7.5,5.2-2.5,8.7-7.6,9.7-2.7.5-3.9,2.2-4.2,4.8h0c-1.5,0-3.2.1-2.4-2.4.4-1.2.2-2.6.3-3.9.3-.6.5-1.2.8-1.8.9,0,1.8,0,2.3-.9h0Z"/>
  <path class="cls-3" d="M433,635.9c.3,0,.9,0,.9.2,2.7,7.5,9,5.7,14.5,5.8,25.1,0,50.2-.1,75.3.1,5,0,6.5-1.9,6.3-6.4-.1-3.3,0-6.6-1.1-9.8.6.2,1.5.2,1.7.6.3.7.3,1.6.4,2.4.6,9.5-3.9,14.2-13.4,14.2-25.4,0-50.8-.2-76.2.2-5.7,0-8.3-1.7-8.4-7.2h0Z"/>
  <path class="cls-3" d="M429.4,478.3c-.8-2.7,0-4.5,2.9-4.3,4.9.4,6.7-2.9,8.3-6.5.3-.8.4-1.6.8-2.3,1.7-3.5.5-5.2-3.5-5.3.6-.3,1.2-.7,1.9-1,.4-.2.8-.5,1.2-.8,1.7-1.3,3.3-2.7,5.8-3.3-1.9,10.9-4.6,20.9-17.4,23.4h0Z"/>
  <path class="cls-3" d="M87,238.6c0,4.3.5,8.5-.7,12.8-1,3.5,3.6,12.2,7,13.8,1.5.7,2.9.7,2.8-1.7,0-1.5-.2-3-1-4.3-1.8-3.2.3-3.2,2.5-3.2-.3,5.1-.5,10.1-.8,15.6-1.7-.6-2.5-1.8-2.9-3.4.2-.2.3-.4.5-.5-.2.2-.3.3-.5.5-10.7-7.9-9.8-18.5-6.9-29.6h0Z"/>
  <path class="cls-3" d="M496,430c-.6-.4-.9-1.2-.4-1.6,4.7-4,2.4-9.9,4-14.7,0-.3-.1-3.8-2-.6-.2.4-1.8,0-2.8-.2,1.8-2.3,3.6-4.7,5.3-7-.4,8.3,6.2,17.8-4.2,24.1h0Z"/>
  <path class="cls-3" d="M542.4,203.9c-6.8.3-7,.7-4.4,7.3,1.6,4,4.2,7.8,2.9,12.4-1.6-.7-1.8-2.1-2.1-3.6-.9-3.7-1.9-7.4-3-11-1.1-3.4-2.4-6.8-3.8-10.8,4.1,1.3,7.3,3.2,10.3,5.6h0Z"/>
  <path class="cls-3" d="M535,174c-3.9-2.6-9.1-2.4-12.7-6-2.8,5.1.6,5.9,4.5,6.6-1.6,1.8-2,3.7-2.1,5.6-2.8-4.9-5.6-9.7-8.9-15.6,6.3,2.3,11.8,4.3,17.2,6.2,1.5.5,1.9,1.8,2,3.1h0Z"/>
  <path class="cls-3" d="M128.8,376.1c5.2-1.4,7.9-8.2,5.3-13.6-2.2-4.5-4.4-8.9-3.9-14.1,2.3,5.2,4.6,10.4,6.8,15.7.8,1.8,0,3.5-.8,5.2-1.5,3.7-3,7.5-4.5,11.4-1.8-1.3-2.5-2.9-2.9-4.7h0Z"/>
  <path class="cls-3" d="M486.8,421.8c-1.3,4.7-2.8,9.5-.2,14.4,1.3-.4,2.9-.8,4.4-1.2-2.1,2.1-4.1,4.2-6.7,6.9-.4-5.4-.8-10-1.2-14.7-.2-2.8,1.8-4,3.7-5.4Z"/>
  <path class="cls-3" d="M427.4,465.6c.4,1,1.6,2.4.6,3.1-5.1,3.1-3.9,8.5-5,13-1,.4-2.1.8-3.8,1.6,1.7-5.3,3.2-10,4.7-14.7.6-1.9,2-2.5,3.6-2.9h0Z"/>
  <path class="cls-3" d="M457.6,88.2c4.5-.4,8.4,1.7,12.5,3.1,2.2.8,4.1,1.8,4.9-1.4,1.8,1.8,3.5,3.6,3.9,6.2h0c-7.3-2.1-14.4-4.8-21.3-7.9h0Z"/>
  <path class="cls-3" d="M125.8,346.8c.3,2.4.5,4.6-1.2,6.9-1.7,2.2-1.9,5-.3,7.8,1.5,2.6,2.2,5.5,1.8,8.5-5.8-7.7-5.8-15.4-.2-23.2h0Z"/>
  <path class="cls-3" d="M568.9,239.9c-3.7,6.7-1.1,14.2-2.8,21.2-.2.9-.1,2-.2,2.9-1.8-5.7-.7-11.7-1.7-17.5-.4-2.6,2.9-4.5,4.6-6.6h0Z"/>
  <path class="cls-3" d="M188.3,459.9c-3.1,1.1-6.2,0-9.2,0-2.7,0-4.9.5-6.1,3.2-1.5-.7-2.9-1.4-3.8-3.7,5.5-.7,10.8-1.4,16.1-1.8,1.3-.1,2.4,1,2.9,2.3h0Z"/>
  <path class="cls-3" d="M379.1,590.2c-.6-6.2,2.5-12.1,1.1-18.4-.6-2.6-1.7-5.4-1.1-8.2,4.3,8.9,4.2,17.8,0,26.6h0Z"/>
  <path class="cls-3" d="M159,97c.1.8.6,2.2.3,2.4-6.5,3.7-6.8,10.7-9.1,16.7-2.1-8.6,2.2-14.4,8.8-19Z"/>
  <path class="cls-3" d="M172,112c0,.3.2.8,0,1-4,5-6.1,11.9-13.2,13.9,3.5-5.8,8.3-10.4,13.2-14.9h0Z"/>
  <path class="cls-3" d="M560,327.2c.2,5.5-1.6,10.6-3.2,15.8-.6,1.9-.9,3.5.2,5.1-.8,1.2-2,1.5-3.9,2.1,2.4-7.9,4.7-15.4,6.9-23h0Z"/>
  <path class="cls-3" d="M538.9,192c3.7-.8,1.7-3.6.8-4.5-3.2-3.2-2.9-7.3-3.6-11.1,3.7,5.2,5.4,11.2,8.4,18.1-2.5-1.3-4.3-1-5.6-2.4h0Z"/>
  <path class="cls-3" d="M357.1,607.3c5.2-4.3,11.3-6.9,17-10.3-3.8,6.6-10.4,8.5-17,10.3Z"/>
  <path class="cls-3" d="M375.1,64h-9.7c.8,2.8,2.1,4,4.6,4,1.5,0,3.5-.7,4,1.7-2.5.8-4.8-.8-7.3-.8-3.3,0-2.6-2.8-2.7-4.8,0-2.8,2.1-2.3,3.5-1.9,2.5.6,5.3.3,7.6,1.8h0Z"/>
  <path class="cls-3" d="M151.6,122.5c3-5.2,4-12.1,11.8-13-3.5,4.7-7,9.5-11.8,13Z"/>
  <path class="cls-3" d="M103.1,219.1c.2-6.8,1.8-13.6-.9-20.2,6.8,6.5,3.5,13.4.9,20.2Z"/>
  <path class="cls-3" d="M437.9,459.9c-1.3,6.7-5.8,9-10.1,5.3,3.4-1.8,6.7-3.6,10.1-5.3Z"/>
  <path class="cls-3" d="M189,88c.8,2.5,1.8,4.8,5.2,4.1-3.2,2.1-6.8,3-11.6,4.5,2.6-3.5,4.5-6.1,6.4-8.7h0Z"/>
  <path class="cls-3" d="M329,643.8c3.1-2,4-4.8,4.1-8.3.2-6.5-1.2-13.1.8-19.5,0,7.8,0,15.5.3,23.3.2,4.2-1.4,5.3-5.1,4.6h0Z"/>
  <path class="cls-3" d="M138.9,153.6c1,2.9,3.4,2.5,5.7,2.5s4.9,0,7.3,0c-5,2.1-10.4,2.1-15.9,3.3.4-2.8,1.6-4.3,2.9-5.7h0Z"/>
  <path class="cls-3" d="M572.1,329.1c-2.2-1.6-.2-3.3-.2-5,.2-2.4,0-4.4-3.2-4.2,1.8-1.3,3.6-2.6,6.2-4.4-.6,5.2-1.2,9.5-2.8,13.6h0Z"/>
  <path class="cls-3" d="M527,625.7c-.6.9-1.6,1.2-2.6,1.2h-27c-1,0-2-.2-2.6-1.2,10.7,0,21.5,0,32.2,0h0Z"/>
  <path class="cls-3" d="M563,344.3c-.2-1.3.6-2.3,1.6-2.8,4.5-2.1,4-7.5,7.1-10.5-.6,5.9-1.9,11.4-8.7,13.3Z"/>
  <path class="cls-3" d="M557.8,260c-1.6-1.6-1.2-3.6-1.2-5.5,0-4.5-2.6-8.3-3.7-12.5,5.3,2.3,4,7.4,4.9,11.5.4,2.1,0,4.3,0,6.5Z"/>
  <path class="cls-3" d="M469,454.1c3.1-4.2,2.9-9.8,5.9-14.1-.2,5.4.7,11.3-5.9,14.1Z"/>
  <path class="cls-3" d="M522.8,124.9c1.5,4.1-1.9,8.9,1.6,12.8,1.1,1.3,1.8,2.7,1.5,4.5-6.2-4.9-5.4-11-3.1-17.3h0Z"/>
  <path class="cls-3" d="M464,473.9c.1-1.1,1.1-2.3,1.8-1.8,4.3,3.3,8.5-.6,12.7,0-4.3,5-9.4,3.1-14.4,1.8h0Z"/>
  <path class="cls-3" d="M165.5,107.4c.9-4,2-8,1.6-12.3-.2-2.3-1-3.3-3.2-3.2.9-1.4,2-2.5,4.2-3.6,0,5.5,0,10.6,0,15.8,0,1.6-1,2.7-2.6,3.2h0Z"/>
  <path class="cls-3" d="M521.2,398.2c-.2-.2-.7-.6-.7-.6,2.7-4.3,2.4-8.9,1.1-13.5,0-.2.7-.6,1-1,.7,5.2,4.1,10.6-1.4,15.1Z"/>
  <path class="cls-3" d="M490.6,462.4c-1.9-3.5-5.4-1.7-8.2-2.4-1.1-.3-3.5,1.1-2.5-1.9,4.6-.4,8.9,1.1,13.5,1.5-.5,1.9-1.7,2.3-2.9,2.9Z"/>
  <path class="cls-3" d="M510.6,122.2c1-.5,1.5-1.4,1.3-2.4-1.1-5.3.7-10.7-.9-15.9,1.4.8,2,2,2,3.7,0,4.9,0,9.9,0,14.8,0,.7.5,1.9-.9,1.6-.6-.1-1-1.2-1.5-1.8h0Z"/>
  <path class="cls-3" d="M102.2,198.9c-2.3,1.5-3.9-1.2-6-.9.5-2,1.1-4,1.9-6.7,2.1,2.7,3.4,5,4.2,7.6Z"/>
  <path class="cls-3" d="M377.8,619.8c-.3,5.8-.6,11.6-5,16.1,1.1-5.5,2.5-11,5-16.1Z"/>
  <path class="cls-3" d="M541.8,377.7c0,1.3,0,2.7-.3,3.9-.8,2.5.9,2.3,2.4,2.4-1.9,1.6-4.2,2.1-7.5,3.1,2.1-3.7,3.8-6.6,5.4-9.5h0Z"/>
  <path class="cls-3" d="M212,481.9c0,2.8-5.5,2.1-3.9,6-1.7-.8-3.5-1.5-4.8-3.3,2.9-1.5,5.8-2.2,8.7-2.7Z"/>
  <path class="cls-3" d="M494.8,412.9c.2,1.1.5,2.2.7,3.3-4.1,0-4.2,6.3-8.7,5.7,2.3-3.4,5-6.3,8-9h0Z"/>
  <path class="cls-3" d="M97,226.1c1.7-.8,4,.1,5.1-2-.4,2.5-.7,5-1.2,8-2.3-1.8-3.1-3.9-3.9-5.9Z"/>
  <path class="cls-3" d="M438.3,44.9c-4,1.4-7.8-.4-10.4-4.8,3.6,1.2,7.2,2.6,10.4,4.8Z"/>
  <path class="cls-3" d="M202.3,469.7c-2.3.4-4.4,0-6.6-.9-2.8-1.2-2.3-2.5-.5-4.1,2.3,1.7,5.2,2.6,7.1,5h0Z"/>
  <path class="cls-3" d="M228,69.9c.3-2.4-.2-4.1-3.1-3.9,2.6-1.2,5.4-1.6,8.9-2-1.8,2.6-3.4,4.6-5.8,5.8Z"/>
  <path class="cls-3" d="M140.2,385c1.9,3.9-1.1,8.2.8,12.1-4.4-3.8-2.3-8-.8-12.1Z"/>
  <path class="cls-3" d="M397.7,36.2c4.4.2,9.4-1.4,12.2,3.8-4.2-.9-8.3-2-12.2-3.8Z"/>
  <path class="cls-3" d="M192.1,110.2c-6.1.3-12.3-.8-18.3.6,1-2.1,3-1.6,4.7-1.7,4.5,0,9.1,0,13.7,0,.1,0,.4.2.3.3,0,.2-.2.5-.3.7h0Z"/>
  <path class="cls-3" d="M381.9,605.8c0,5.1-.2,10.1-4.2,14,1-4.8,2.2-9.5,4.2-14Z"/>
  <path class="cls-3" d="M489.8,446.9c5.2,2.2,10.8.6,16.1,1.1-5.5,1.8-11.1.7-16.7,1-.3,0-.6-.5-.9-.8.5-.4,1-.9,1.5-1.3h0Z"/>
  <path class="cls-3" d="M298.8,46.1c-3.3-2.1-7-2.2-10.8-2,2.6-1.6,5.6-1.2,8.5-1.8,3.3-.7,2.5,2,2.3,3.9Z"/>
  <path class="cls-3" d="M218.6,464.1c3.2,2.3,4.3,5.6,5,9.3-4.4-1.6-3.7-6-5-9.3Z"/>
  <path class="cls-3" d="M177,440c2.3-5.4.7-10.9.4-16.3,1.4.2,1.8,1.2,1.8,2.5,0,4.3,0,8.6-.1,12.8,0,1.8-.4,2.8-2.1,1h0Z"/>
  <path class="cls-3" d="M122.1,223.6c.7-3.3-2-7.7,3.1-9.5-.6,3.3-.6,6.8-3.1,9.5Z"/>
  <path class="cls-3" d="M94.2,320c-4.7-.7-4.2,2.6-4.3,5.5-1-2.9-2-5.8-1.7-9.1,2.4.8,4.3,2,6,3.5h0Z"/>
  <path class="cls-3" d="M565.9,264c1.4,2,3.1,2.3,5.2,1-.6,2.7-3,4.1-5.2,6.2v-7.3Z"/>
  <path class="cls-3" d="M119,204.8c-1.6,2.7-3.1,5.4-5.9,7.2-.5-4.4,2.1-6.3,5.9-7.2Z"/>
  <path class="cls-3" d="M157,448c5.3-.6,10.8,1.2,16.1-1.1.7.7,3.2,2,0,2-5.3,0-10.8.9-16-.9h0Z"/>
  <path class="cls-3" d="M467.7,439.7c-1,4.1-3.9,5.8-7.9,6.1,2.2-2.6,4.9-4.5,7.9-6.1Z"/>
  <path class="cls-3" d="M375,642.8c3.1-1.8,6.5-.6,9.7-.9,2.8-.3,5.7.5,8.3-1,.2,2.4-1.6,2.1-3,2.1-5,0-10-.1-14.9-.2h0Z"/>
  <path class="cls-3" d="M94,205.8c.7,3.5-1.7,6.9-.4,10.4,0,.1-1,.6-1.5.9-1.9-4.2.8-7.6,2-11.3h0Z"/>
  <path class="cls-3" d="M411.2,478.2c-.4-1.7-.8-3.3-1.2-5,1.5-.5,2.7-1.8,5-1.4-1.5,2.2-1.8,4.7-3.7,6.4Z"/>
  <path class="cls-3" d="M200,473.8c.7-1.4,1.5-2.7,2.2-4.1,1.4.8,2.8,1.6,5,2.8-2.9,1.1-5,1.7-7.2,1.3h0Z"/>
  <path class="cls-3" d="M453.9,629.9c-2.4.2-3-1.2-2.9-3.3,0-1.9,0-3.9,0-5.8,1.6,2.8,2.5,5.9,2.8,9.1h0Z"/>
  <path class="cls-3" d="M128.1,205.1c0-2.7-2-3.1-4.2-3.2,1.9-1.2,3.8-2.4,6.1-3.8,0,3-.9,5-2,7h0Z"/>
  <path class="cls-3" d="M499,92c-2-.5-3,1.4-4.5,2-.3-1.7-1.2-4.2.2-4.9,2.1-1.1,2.9,1.7,4.2,2.9h0Z"/>
  <path class="cls-3" d="M130.1,348c-1.6,0-2.5-2.2-4.4-1.3.5-1.7,1.1-3.3,1.7-5.2,1.6,2.2,2.3,4.3,2.7,6.6Z"/>
  <path class="cls-3" d="M475.2,438.1c-1.2-.5-2.4-1.1-3.6-1.6,1.1-1.3,2.3-2.6,3.9-4.4.7,2.6.6,4.3-.3,6h0Z"/>
  <path class="cls-3" d="M541.9,315.9c-.8,3.4,2,7.5-1.9,10.4-.5-3.7.6-7,1.9-10.4Z"/>
  <path class="cls-3" d="M540.6,326.2c-1.3,3.3.4,6.6.3,9.9-2.4-3.2-5-6.5-.3-9.9Z"/>
  <path class="cls-3" d="M85.2,292c1,3,3.3,5.7,2.8,9.2-4.2-2-2.7-5.9-2.8-9.2Z"/>
  <path class="cls-3" d="M528.8,374c1.3,1.6,3.2,2,4.8,2.9-.6,1.2-.6,2.9-2.3,3.6-1.2-2-2.2-4.1-2.6-6.5h0Z"/>
  <path class="cls-3" d="M547,260c3.8-.4,5.5,1.7,6,5.2-2-1.7-4.7-2.6-6-5.2Z"/>
  <path class="cls-3" d="M528.1,188c2.5,1.2,7.1-2.8,7.8,3.1-2.7-.9-5.6-1.2-7.8-3.1Z"/>
  <path class="cls-3" d="M201.1,89.3c2.7-2.1,5.2-4.7,9.1-3.1-2.7,1.9-5.8,2.7-9.1,3.1Z"/>
  <path class="cls-3" d="M151,390c-4.1-.3-4.5-2.9-3.8-6.2,1.8,1.8,2.8,4,3.8,6.2Z"/>
  <path class="cls-3" d="M288,44.1c-2.3,4-6.1,1.2-9.1,2,2.9-1.3,6-1.9,9.1-2Z"/>
  <path class="cls-3" d="M161.2,418c2.3,2.3,1.8,5.2,1.8,8-3.3-2.1-1.6-5.3-1.8-8Z"/>
  <path class="cls-3" d="M118.1,175.2c-.4-3.1,2.4-5.4,2.1-8.5,2.4,3.6,0,6-2.1,8.5Z"/>
  <path class="cls-3" d="M494.7,96.1c2,2,1.7,4,0,6.1-.8-2-.6-4,0-6.1Z"/>
  <path class="cls-3" d="M527.9,359.9c.1,2.6-.3,5-1.9,7.1-1.8-3,1.2-4.7,1.9-7.1Z"/>
  <path class="cls-3" d="M176.4,422.6c-2.5-.7-5.1-1.3-4.3-4.8,1.8,1.3,3.5,2.7,4.3,4.8Z"/>
  <path class="cls-3" d="M120.1,395.9c0,1.3-.7,2.1-2.1,2.2-1.1-.6-1.9-2-1.3-2.7.8-.8,2.4-.8,3.4.5h0Z"/>
  <path class="cls-3" d="M125.2,214.2c.5-2.1-1.7-5,1.9-6.1,0,2.2-.6,4.3-1.9,6.1Z"/>
  <path class="cls-3" d="M572.1,264.2c-.4-2.4-1.3-5.2,3.1-3.9-1.2,1.1-1.4,3.1-3.1,3.9Z"/>
  <path class="cls-3" d="M131,189.9c.8-2,1.8-3.6,4.3-3.6-.2,2.8-2.5,2.9-4.3,3.6Z"/>
  <path class="cls-3" d="M408.1,484.1c-.2-2-.7-4.2,2.5-4.2-.7,1.5-1.1,3.1-2.5,4.2Z"/>
  <path class="cls-3" d="M400,490c.7-3.3,3.3-1.7,5.1-1.9-1.4,1.3-3.3,1.6-5.1,1.9Z"/>
  <path class="cls-3" d="M410.8,40.2c2.2.2,5-1.1,6.1,2.2-2.2-.4-4.3-.9-6.1-2.2Z"/>
  <path class="cls-3" d="M405.2,488.2c-.3-2.3,1.1-3.5,3-4.2-.4,1.8-.8,3.7-3,4.2Z"/>
  <path class="cls-3" d="M525.7,182.3c3.9.4,1.7,3.3,2.2,5.1-1.3-1.5-1.9-3.2-2.2-5.1Z"/>
  <path class="cls-3" d="M372.9,635.8c0,2.1,0,4.2,0,6.3-3.5-2.1-.7-4.2,0-6.3Z"/>
  <path class="cls-3" d="M136.2,184.2c-.3-1.9,0-3.5,2.1-4.1-.3,1.6-.9,3-2.1,4.1Z"/>
  <path class="cls-3" d="M492.6,433.4c-.5-.9-.9-1.9,0-2.6.9-.8,1.3.2,1.8.8-.3.9-.8,1.5-1.7,1.8Z"/>
  <path class="cls-3" d="M195,92c.8-3.1,3.3-1.4,5.1-1.9-1.7.6-3.4,1.2-5.1,1.9Z"/>
  <path class="cls-3" d="M422.9,618.1c1.3-.7,2.7-4.3,3.9,0-1.3,0-2.6,0-3.9,0Z"/>
  <path class="cls-3" d="M124,201.9c-.1,2.9-2.3,2-4,2.1,1.3-.7,2.6-1.4,4-2.1Z"/>
  <path class="cls-3" d="M102.7,222c-2.7-1.4-.9-2.2.5-3-.2,1-.3,2-.5,3Z"/>
  <path class="cls-3" d="M128,397.2c-1.8.9-3.7,1.7-4.8-.9,1.6.3,3.2.6,4.8.9Z"/>
  <path class="cls-3" d="M503,96.1c-1.5,0-3.3.2-2.7-2.4,1.3.3,2,1.4,2.7,2.4Z"/>
  <path class="cls-3" d="M141.8,398.3c2.5-.3,2.3,1.3,2.1,2.9-1.2-.6-1.9-1.6-2.1-2.9Z"/>
  <path class="cls-3" d="M210.2,86.3c-.2-2.1,1.3-2.2,2.8-2.2-.4,1.4-1.5,1.9-2.8,2.2Z"/>
  <path class="cls-3" d="M293.1,49.4c1.3-2.2,3.4-1,5.2-1.2-1.5,1.6-3.5.6-5.2,1.2Z"/>
  <path class="cls-3" d="M459.8,445.7c.2,2.4-1.4,2.2-3,2.2.8-1,1.6-1.9,3-2.2Z"/>
  <path class="cls-3" d="M526.1,368c2.6.5,1.6,2.5,1.8,4-.6-1.3-1.2-2.7-1.8-4Z"/>
  <path class="cls-3" d="M494.8,104c1,.5,1.1,1.4,1,2.3-1.2-.4-1.5-1.2-1-2.3Z"/>
  <path class="cls-3" d="M469.9,437.8c0,1.5-.6,2.2-2.2,1.9.3-1.1,1.2-1.6,2.2-1.9Z"/>
  <path class="cls-3" d="M415,618.1c1-1.6,2-1.4,3.1,0h-3.1Z"/>
  <path class="cls-3" d="M451.1,620.9c-1.4-.7-1.1-2-1-3.2,1.1.8,1,2,1,3.2Z"/>
  <path class="cls-3" d="M163,426c1.4,0,2.1.6,2,2-.7-.7-1.3-1.4-2-2Z"/>
  <path class="cls-3" d="M498.9,437.9c0,1.4-.7,2.1-2.1,2.1.7-.7,1.4-1.4,2.1-2.1Z"/>
  <path class="cls-3" d="M163.5,109.5c-.2-1.5.5-2.1,1.9-2.1-.2,1.1-.8,1.9-1.9,2.1Z"/>
  <path class="cls-3" d="M544.9,375c-.6.9-1.4,1-2.3.9.4-.7.8-1.4,1.1-2.1l.3.2c.3.3.6.6.9,1h0Z"/>
  <path class="cls-3" d="M471.7,436.6c0,1.3-.9,1.3-1.8,1.3.3-.8.9-1.3,1.8-1.3Z"/>
  <path class="cls-3" d="M135.3,186.2c-.2-1-.1-1.8,1-2.1,0,.8,0,1.7-1,2.1Z"/>
  <path class="cls-3" d="M155.9,398c-.7-.5-.8-1.2-.8-2,.8.5,1.1,1.1.8,2Z"/>
  <path class="cls-3" d="M524.7,180.2c1.1.3,1.2,1.1,1.1,2.1-1-.4-.9-1.3-1.1-2.1Z"/>
  <path class="cls-3" d="M214,481c-.5.8-1.2.9-2.1.9.5-.8,1.2-1,2.1-.9Z"/>
  <path class="cls-3" d="M491,435c0-.9,0-1.8,1.4-1.7,0,.9-.7,1.3-1.4,1.7Z"/>
  <path class="cls-3" d="M374.1,597.1c.2-.9,1-1.2,1.8-1.2-.2,1-1.1,1-1.8,1.2Z"/>
  <path class="cls-3" d="M536.2,176.2c-1-.4-1.2-1.2-1.2-2.2.9.4,1.1,1.3,1.2,2.2Z"/>
  <path class="cls-3" d="M154.2,394.9c-1-.3-1.2-1.1-1.2-2,.8.4,1.1,1.1,1.2,2Z"/>
  <path class="cls-3" d="M158.7,126.8c.1.4.2.7.3,1.1-.4,0-.8-.1-1.2-.2.3-.3.5-.6.8-.9h0Z"/>
  <path class="cls-3" d="M523.1,123.1c1,.9.9,1.5-.4,1.8.1-.6.3-1.2.4-1.8Z"/>
  <path class="cls-3" d="M150.2,122.1c.4.2.8.5,1.3.7-.1.6-.5,1.3-1.1,1-.3-.1-.1-1.1-.2-1.7h0Z"/>
  <path class="cls-3" d="M173.9,110.8c-.2,1.1-1,1.2-1.9,1.2.6-.4,1.3-.8,1.9-1.2Z"/>
  <path class="cls-3" d="M500.3,93.8c-1.2,0-1.3-.9-1.3-1.8.7.4,1.3.9,1.3,1.8Z"/>
  <path class="cls-3" d="M418.9,43.1c.8,0,1.6,0,2.1.9-.9.2-1.6,0-2.1-.9Z"/>
  <path class="cls-3" d="M426.8,618.1c.5,0,1,0,1.4.1-.1.3-.3.5-.4.8-.3-.3-.7-.6-1-.9h0Z"/>
  <path class="cls-3" d="M162.2,413c.4.2.8.4,1.2.6-.5.1-.9.2-1.4.4,0-.3.1-.7.2-1Z"/>
  <path class="cls-3" d="M416.8,42.3c.9-.1,1.7,0,2.2.9-.8,0-1.7,0-2.2-.9Z"/>
  <path class="cls-3" d="M527.9,372c.9.5,1,1.2.9,2.1-.8-.5-.9-1.3-.9-2.1Z"/>
  <path class="cls-3" d="M575.2,260.4c.3-.4.5-.9.8-1.3.4.8,0,1.1-.8,1.3Z"/>
  <path class="cls-3" d="M152.3,391.9c-.4-.5-.8-1-1.1-1.5.4.5.8,1,1.1,1.5Z"/>
  <path class="cls-3" d="M152.2,155.6c.3-.5.7-1,1-1.5-.3.5-.7,1-1,1.5Z"/>
  <path class="cls-3" d="M140,151.8c-.3.4-.6.8-.9,1.3.3-.4.6-.8.9-1.3Z"/>
  <path class="cls-3" d="M140.9,397.1c.3.4.7.8,1,1.2-.8,0-.9-.6-1-1.2Z"/>
  <path class="cls-3" d="M143.8,401.2c.7,0,1.1.2.3.8-.2-.2-.3-.5-.3-.8Z"/>
  <path class="cls-3" d="M501.9,434.8c-.4.4-.8.8-1.2,1.2.4-.4.8-.8,1.2-1.2Z"/>
  <path class="cls-3" d="M177.3,423.7c-.7,0-1.1-.3-1-1.1.7,0,1,.4,1,1.1Z"/>
  <path class="cls-3" d="M503.9,432.8c-.4.4-.8.8-1.2,1.2.4-.4.8-.8,1.2-1.2Z"/>
  <path class="cls-3" d="M223.8,473.2c.4.3.8.7,1.2,1-.4-.3-.8-.7-1.2-1Z"/>
  <path class="cls-3" d="M478.9,96.1h.4c0,0-.2,0-.3,0h0c0,0,0,0,0,0Z"/>
  <path class="cls-3" d="M161.5,415c0,.2.1.5,0,.7,0,0-.2.2-.3.2,0-.3.2-.6.2-.9h0Z"/>
  <path class="cls-3" d="M411,479c-.2-.2-.3-.4-.4-.6.2,0,.5-.1.8-.2,0,.3,0,.6-.3.8h0Z"/>
  <path class="cls-2" d="M440.9,458.1c-.4.2-.8.5-1.2.8.4-.2.8-.5,1.2-.8Z"/>
  <path class="cls-3" d="M227,70.9c.3-.3.5-.6.8-.9,0,.6-.2.9-.8.9Z"/>
  <path class="cls-3" d="M428,479.1c.4-.3.8-.6,1.2-.8,0,.7-.6.8-1.2.8Z"/>
  <path class="cls-3" d="M571,265.2c.4-.4.8-.7,1.1-1-.4.4-.8.7-1.1,1Z"/>
  <path class="cls-3" d="M166.8,430c.4.4.8.7,1.2,1.1-.4-.4-.8-.7-1.2-1.1Z"/>
  <path class="cls-3" d="M165,428c.3.4.7.8,1,1.2-.3-.4-.7-.8-1-1.2Z"/>
  <path class="cls-3" d="M155.1,396c-.3-.4-.7-.8-1-1.1.3.4.7.8,1,1.1Z"/>
  <path class="cls-3" d="M128.1,190.9c.4-.2.8-.5,1.3-.7-.4.2-.8.5-1.3.7Z"/>
  <path class="cls-3" d="M499.9,436.8c-.3.4-.7.8-1.1,1.2.3-.4.7-.8,1.1-1.2Z"/>
  <path class="cls-3" d="M488,625.8c-.3.8-.7.9-1.1,0,.3,0,.7,0,1.1,0Z"/>
  <path class="cls-3" d="M126.2,191.3c0-.4-.1-.9-.2-1.3h0c.3.3.7.6,1,.9-.2.3-.5.4-.9.4h0Z"/>
  <path class="cls-3" d="M120,204c-.4.3-.8.6-1.2,1,.4-.3.8-.6,1.2-1Z"/>
  <path class="cls-3" d="M569.9,238.8c-.3.4-.7.8-1.1,1.2.3-.4.7-.8,1.1-1.2Z"/>
  <path class="cls-3" d="M432.2,634c.2.4.5.9.7,1.3-.2-.4-.5-.9-.7-1.3Z"/>
  <path class="cls-3" d="M217.8,461c.2.2.4.4.6.6-.1.1-.2.2-.3.3-.2-.3-.3-.6-.3-.9h0Z"/>
  <path class="cls-3" d="M490.2,463c-.2-.2-.4-.4-.6-.6.3,0,.5.1.8.2,0,.2,0,.3-.2.4h0Z"/>
  <path class="cls-4" d="M260.4,304.8c-4.5.9-8.3,1.2-11.9,2.4-2.8.9-3.5-.5-4.3-2.4-.9-2.2-.4-3.7,2-4.7,3.2-1.4,6.2-3,9.3-4.6,1.8-.9,3-2,2.1-4.3-.7-1.8-1-3.6-3.8-3.3-3.5.4-7,0-10.5,0-2.1,0-3.5,0-3.5-2.8,0-2.2-.7-4.1,2.7-4.6,3.4-.5,6.7-2,10.1-2.5,2.4-.4,2.9-1.5,3.1-3.7.2-2.2-.5-3.4-2.8-3.8-3.4-.7-6.7-1.9-10-2.5-2.4-.5-3.4-1.3-3.2-3.9.2-2.5,1.2-3.3,3.6-3.3,3.7,0,7.3-.6,11-.6,2.9,0,2.9-2.2,3.6-3.9.8-2-1-2.6-2.2-3.2-3.1-1.6-6.2-3.2-9.3-4.7-2.5-1.1-2.9-2.7-2-5.2.9-2.6,2.4-2.4,4.6-1.8,3,.8,6.2.9,9.2,1.8,2.2.6,3.6.9,4.9-1.5,1.3-2.4.9-3.9-1.2-5.4-2.7-2-5-4.4-7.7-6.3-2-1.5-2.4-2.6-1-4.9,1.4-2.2,2.5-2.5,4.8-1.4,3.1,1.6,6.4,2.7,9.5,4.3,2.3,1.3,3.5.4,5-1.3,1.7-1.8,1.2-2.9-.2-4.5-2.2-2.5-4-5.3-6-7.9-1.4-1.9-2.4-3.3,0-5.6,2.6-2.5,3.8-.9,5.6.5,2.5,2,5.2,3.6,7.5,5.7,1.7,1.5,3,1.7,4.7.1,1.5-1.4,2.4-2.4,1.2-4.6-1.7-3.2-2.8-6.7-4.4-10-1.1-2.1-.8-3.2,1.3-4.3,1.9-1,3.3-2,5,.4,2,2.9,4.4,5.4,6.5,8.2,1.4,1.8,2.8,2.4,5,1.1,2.3-1.2,2.5-2.5,1.9-4.8-.9-3.2-1-6.6-2-9.7-.8-2.5-.3-3.6,2.1-4.4,2.2-.8,3.9-.8,4.9,1.9,1.2,3,2.9,6,4.5,8.9.9,1.6,1,3.6,4.2,2.7,2.9-.9,3.6-2.1,3.5-4.7,0-3.2.4-6.4.1-9.5-.3-3,1.3-3.5,3.6-3.9,3.1-.6,3.2,1.2,3.6,3.3.8,3.4,2.1,6.6,2.7,10,.4,2.4,1.6,3,3.7,2.9,2.1,0,3.3-.6,3.7-3,.7-3.7,2.1-7.3,2.8-11,.4-2.3,1.4-2.7,3.4-2.1,1.8.5,4.1-.2,3.8,3.1-.3,3.5,0,7,0,10.5-.2,3.1,1.8,3.8,4.1,4.5,2.7.8,3-1.5,3.8-2.9,1.5-2.8,3-5.5,4.2-8.5,1.2-2.8,2.8-2.8,5.4-2.1,3.1.9,2.1,2.5,1.6,4.5-.8,3-1.3,6.1-1.9,9.2-.4,2.2-.6,4,2.2,5.3,2.5,1.2,3.6,0,4.9-1.6,2.1-2.6,4.3-5.1,6.3-7.7,1.5-2,2.9-2,5-.8,2.1,1.3,2.6,2.5,1.4,4.7-1.6,3-2.8,6.4-4.4,9.4-1.2,2.3-.4,3.5,1.3,5.1,1.8,1.7,3.1,1.1,4.7-.2,2.4-2,5.1-3.7,7.5-5.7,1.8-1.5,2.9-3.2,5.5-.5,2.4,2.4,1.5,3.6-.2,5.5-2,2.4-3.7,5.1-5.5,7.6-1.2,1.6-2.4,2.8-.4,5,1.9,2,3.3,2.1,5.5.9,2.7-1.5,5.7-2.5,8.5-4,2.1-1.1,3.5-1.1,5,1.1,1.6,2.4.9,3.6-1.1,5.1-2.8,2.1-5.3,4.6-8,6.8-1.7,1.4-1.8,2.8-.7,4.8,1.1,2.1,2.2,2.5,4.4,1.9,3.2-.9,6.5-1.3,9.7-2,2-.5,3.5-1.2,4.6,1.7,1,2.9.7,4.1-2.2,5.3-3.1,1.2-5.9,3-8.9,4.5-1.6.8-2.8,1.7-2.3,3.8.5,1.9,1.1,3.4,3.5,3.5,3.8.1,7.6.4,11.5.7,1.4,0,3.1-.4,3,2.1,0,1.9.6,4.1-2.1,4.8-3.3.8-6.8,1.4-10.1,2.4-1.9.6-4.1,1.1-3.9,4.2.2,2.6,1.4,3.3,3.7,3.7,2.8.4,5.4,1.4,8.1,2,3.1.6,4.9,1.8,4.3,5.6-.6,3.8-3.2,2.1-4.9,2.3-3,.3-6,.4-9,0-2.7-.3-3.4,1.3-4,3.3-.7,2.2.2,3.3,2.2,4.2,3,1.3,5.9,3,8.9,4.4,2,.9,3.4,1.8,2.4,4.5-.8,2.2-1.6,3.7-4.5,2.8-3.1-1-6.4-1.4-9.7-2.1-2.4-.5-4.1.1-5.1,2.6-1,2.2,0,3.3,1.6,4.5,2.5,1.9,4.8,4.1,7.3,6,1.8,1.4,3.3,2.3,1.5,5.1-1.7,2.7-3.1,2.6-5.5,1.3-2.8-1.5-5.7-2.6-8.6-3.9-1.7-.8-3.1-2.2-4.9.5-1.4,2.1-1.9,3.3,0,5.3,2.3,2.5,4.2,5.5,6.3,8.3,1.3,1.7,1.4,3.2-.4,4.8-1.5,1.3-2.8,2-4.7.4-2.8-2.3-5.9-4.3-8.8-6.6-1.4-1.1-2.4-2.1-4.2-.4-1.5,1.5-3,2.5-1.7,5,1.6,3,2.9,6.3,4.4,9.4,1.1,2.2,1.2,3.6-1.3,5.2-2.6,1.6-3.6.9-5.1-1.2-1.9-2.7-4.3-5.1-6.3-7.7-1.5-1.9-2.9-2.1-5.1-1-2.4,1.1-2.1,2.7-1.8,4.5.6,3.2,1,6.5,2,9.7.7,2.5.7,3.8-2.1,4.7-2.7.9-3.8,0-4.9-2.2-1.3-3-3-5.9-4.4-8.9-.9-1.9-2-2.9-4.2-2.4-2.2.5-3.6,1.5-3.6,4,0,3.7-.1,7.3,0,11,0,2-.3,3.3-2.7,3-1.7-.2-4,1.1-4.5-2.3-.5-3.7-2.2-7.3-2.8-11-.5-2.6-2-2.6-3.9-2.7-1.9,0-3,.4-3.3,2.6-.6,3.5-2.3,7-2.7,10.5-.4,3.5-2.4,2.7-4.5,2.9-3,.2-2.6-1.6-2.7-3.5,0-3.5-.4-7-.3-10.5,0-2.2-.9-3.4-2.9-3.9-2.2-.5-3.7,0-4.7,2.3-1.3,3-3.1,5.9-4.4,8.9-1.1,2.5-2.4,3-5,2-2.7-.9-2.7-2-1.9-4.3,1-3.1,1.3-6.5,2-9.7.4-1.8.9-3.4-1.5-4.6-2.3-1.2-3.9-1-5.6,1.1-2.2,2.9-4.9,5.4-7.1,8.4-1.4,2-2.5,1.5-4,.3-1.4-1.1-3.3-1.6-1.8-4.2,1.8-3.3,2.8-7.1,4.7-10.4,1.4-2.6-.2-3.4-1.6-4.9-1.7-1.7-2.9-.8-4.2.2-2.9,2.2-6.1,4.1-8.8,6.6-2.2,2-3.2.9-4.9-.5-2.1-1.8-1.5-3.1,0-4.9,2.1-2.5,4-5.3,6-7.9,1-1.4,2.9-2.3.9-4.5-1.7-1.8-3.1-3.2-5.8-1.5-2.7,1.6-5.7,2.7-8.5,4-2,1-3.7,1.8-5.3-1-1.6-2.7-.6-4.1,1.5-5.7,2.6-2,5.1-4.2,7.8-6.2,1.4-1,2.2-2,1.1-3.7-.9-1.5-1.2-3.7-3.1-3.2h0ZM298,273.9c-.6,19.7,15.9,33.1,31.4,34,19.6,1.1,35.3-15,35.4-33,0-18.5-15.1-33.9-33.8-33.9-17.6,0-32.8,14-33.1,32.9Z"/>
  <path class="cls-4" d="M416,602.1c-1.3,0-2.7-.2-4-.2-9.3,0-9.4,0-6.9-8.7,2.6-8.9,4.9-17.8,6.9-26.9.2-.9,0-2.1,1.4-2.5,1.2,4,2.5,8.1,3.7,12.1.6,4.6,1.8,8.9,3.8,13.1h0c1,4.2,2,8.5,3,12.8-.6,0-1.2.2-1.8.2-2,0-4,0-6,0Z"/>
  <path class="cls-3" d="M420.9,589.1c-2-4.2-3.2-8.5-3.8-13.1,3.8.7,3.4,4,3.8,6.6.3,2.1,0,4.3,0,6.5h0Z"/>
  <path class="cls-3" d="M423.8,601.9c-1-4.3-2-8.6-3-12.9,2.7,3.9,5.8,7.7,3,12.9Z"/>
  <path class="cls-3" d="M416,602.1c2,0,4,0,6,0-2,2.8-4,2.8-6,0Z"/>
  <path class="cls-3" d="M400.4,617.5c-.3,0-.4.1-.6.2,0-.1,0-.2,0-.4.2,0,.4.1.7.2h0Z"/>
  <path class="cls-4" d="M352.9,590.7c-2,.6-4,1.1-6,1.7-1.8.9-3.7,1.7-5.8,1.6-1.3,0-2.6-.2-3.9-.3-2.5-1.5-3.2-3.5-3.1-6.4.2-7.7,0-15.5-.1-23.2.2-.2.3-.4.3-.7,6.3-.4,12.6-1,18.8.8,0,0,0,0,0,0,3.9,2.6,7,5.8,7.6,10.8,0,1.7,0,3.5-.2,5.2-.2,1-.3,1.9-.5,2.9h0c-.9.4-1,1.2-1,2h0c-1,.8-1.9,1.6-2.1,2.9h0c-1.8.3-2.9,1.6-4.1,2.8h0Z"/>
  <path class="cls-3" d="M333.9,564c0,7.8.3,15.5.1,23.2,0,3,.7,5,3.1,6.4-1,1.7-2.5,1.6-3.9.7-1.3-.8-.6-1.9-.5-3.1.3-8,1-15.9-.4-23.8-.3-1.5-.6-3.1,1.6-3.4h0Z"/>
  <path class="cls-3" d="M352.9,564.1c-6.2-1.8-12.5-1.3-18.8-.8.1-1-.3-3.3,1-2.6,5,2.5,10.1.7,15.1,1.2,1.5.2,2.6.4,2.6,2.2Z"/>
  <path class="cls-3" d="M360.5,574.8c-.5-5-3.7-8.1-7.6-10.8,5.6.3,8.6,4.6,7.6,10.8Z"/>
  <path class="cls-3" d="M352.9,590.7c1.2-1.2,2.3-2.5,4.1-2.9-.7,1.8-.1,5.5-4.1,2.9Z"/>
  <path class="cls-3" d="M341,593.9c2.1,0,4-.7,5.8-1.6-.9,4.2-3.4,2.8-5.8,1.6Z"/>
  <path class="cls-3" d="M356.9,587.9c.2-1.3,1.1-2.2,2.1-3,0,1.5,0,3-2.1,3Z"/>
  <path class="cls-3" d="M359.8,582.9c.2-1,.3-1.9.5-2.9.9,1.1,1,2.1-.5,2.9Z"/>
  <path class="cls-3" d="M358.9,584.9c0-.8.1-1.7,1-2.1,0,.9,0,1.7-1,2.1Z"/>
  <path class="cls-3" d="M126,190.1c-.2-.4-.5-.7-.7-1.1,0,0,.2-.2.3-.2.1.4.3.9.4,1.3h0s0,0,0,0Z"/>
  <path class="cls-3" d="M571.7,236.6c0,.3.9.3.3.8,0,0-.4-.3-.6-.5l.2-.3h0Z"/>
  <path class="cls-3" d="M493.6,426.4c.2-1.2.4-2.5.7-3.7.5,0,1-.2,1.1,0,1.1,1.6-.1,2.7-1.7,3.8h0Z"/>
  <path class="cls-2" d="M544.9,375c-.3-.3-.6-.6-.9-1,.3.3.6.6.9,1Z"/>
  <path class="cls-2" d="M93.8,268.2c.2-.2.3-.3.5-.5-.2.2-.3.4-.5.5h0Z"/>
  <path class="cls-5" d="M298,273.9c.2-18.9,15.4-32.8,33.1-32.9,18.7,0,33.8,15.4,33.8,33.9,0,18-15.8,34.1-35.4,33-15.5-.9-32-14.3-31.4-34Z"/>
</svg>